<?xml version="1.0" encoding="UTF-8"?>
<svg id="Layer_1" data-name="Layer 1" xmlns="http://www.w3.org/2000/svg" viewBox="0 0 1276 457">
  <path d="M-1.84,380.22h580.32c.1,0,.19.02.19.04h0v86.01c0,.09-.09.16-.19.16H-1.84c-.1,0-.19-.07-.19-.16v-86.01h0s.09-.04.19-.04Z" style="fill: #101d42; fill-rule: evenodd; stroke-width: 0px;"/>
  <path d="M101.52,19.49h0c.48,0,.88.39.88.88v378.27c0,.48-.39.87-.87.87h0c-.48,0-.88-.39-.88-.88V20.36c0-.48.39-.88.88-.88Z" style="fill: #0c0e17; stroke-width: 0px;"/>
  <path d="M115.25,41.73h348.82c1.18,0,2.14.96,2.14,2.14h0c0,1.18-.96,2.14-2.14,2.14H115.25c-1.18,0-2.14-.96-2.14-2.14h0c0-1.18.96-2.14,2.14-2.14Z" style="fill: #0c0e17; fill-rule: evenodd; stroke-width: 0px;"/>
  <rect x="111.65" y="19.76" width="356.64" height="373.57" style="fill: #fff; stroke-width: 0px;"/>
  <path d="M110.56,13.36h358.81c3.18,0,5.78,2.6,5.78,5.78h0c0,3.18-2.6,5.78-5.78,5.78H110.56c-3.18,0-5.78-2.6-5.78-5.78h0c0-3.18,2.6-5.78,5.78-5.78Z" style="fill: #e2f0fb; fill-rule: evenodd; stroke-width: 0px;"/>
  <path d="M478.37,14.58h0c1.07,0,1.94.87,1.94,1.94v4.68c0,1.07-.87,1.94-1.94,1.94h0c-1.07,0-1.94-.87-1.94-1.94v-4.68c0-1.07.87-1.94,1.94-1.94Z" style="fill: #0c0e17; stroke-width: 0px;"/>
  <rect x="99.77" y="14.58" width="3.89" height="8.57" rx="1.94" ry="1.94" style="fill: #0c0e17; stroke-width: 0px;"/>
  <g>
    <path d="M377.35,192.87h-1.78l1.57-4.75c.65-.05.97-.28,1.66-.3-.08.76-.46,1.71-.68,2.49-.2.68-.68,1.8-.76,2.56h0ZM392.51,64.95c-1.8.12-3.58.45-5.1.83-.91.23-1.61.5-2.46.72-1.07.27-2-.06-3.03-.06-3.34,0-7.04.47-10.1,1.78-2.58,1.11-5.39,3.13-6.27,5.94-3.2-2.26-5.01-2.76-6.57,1.9-1.44,4.27-2.06,10.44.91,13.66.6.65,1.23,1.29,2.22,1.52-.22,2.8-1.18,5.47-1.41,8.32-1.91.44-3.8,2.94-3.96,4.9l-.06.74c-.14,1.79,1.34,3.43,2.99,3.57.02,4.33.81,6.49,2.76,9.27.25.36.32.49.63.79l1.47,1.27c.99.73,2.51,1.59,3.75,1.89-.11,1.08-1.02,2.63-1.63,3.24-.6.6-.6.72-1.53.73-.59,0-4.59,1.44-5.37,1.78-3.35,1.44-6.85,2.75-10.01,4.63-1.62.96-2.54,2.28-3.72,3.7l-1.11,1.38c-.14-.9-.63-4.58-1.26-5.17-.72-.68-2.01-.63-3.04-.63-4.54,0-12.74,4.05-16.46,7.46-.74.68-1.37,1.21-2.02,2-1.64,1.98-1.83,2.75-.83,4.85,1.25,2.62,1.11,1.19.32,3.31-.85,2.28-.27,5.07,1.21,6.69.74.81.66.21.08,1.98-1.1,3.37-2.01,6.98-3.08,10.37l-2.59,8.81c-.31,1.12-.8,2.41-.89,3.55-.31,3.86,6.62,4.02,9.25,1.82.94-.79,2.36-2.09,3.21-2.97l2.27-2.38c.3-.31.41-.48.74-.82l2.22-2.43c.52-.63.89-.65,1.63-.65-.06.74-.22,1.15-.38,1.85-.17.74-.29,1.22-.45,1.93-.31,1.34-.53,2.45-.85,3.76-1.84,7.5-3.38,15.01-5.42,22.52-1.3,4.78-2.78,9.72-4.41,14.09l-3.97,9.73c-.9,2.09-2.47,6.44.67,7.19-1.63,5.21-3.4,11.91-4.87,17.15-8.45,30.23-17.23,60.3-25.71,90.53l-.07.24c-1.35,4.18-2.43,8.41-3.63,12.71l-3.68,12.95c-.2.71-.41,1.44-.59,2.1-.15.56-.45,1.83-.66,2.19-2.22-.61-.87-2.57-4.72,1-1.16,1.07-3.8,3.59-5.17,4.07-2.47.87-10.22,2.49-11.67,4.27-.36.44-.53,1.08-.67,1.69-.38,1.65-1.15.78-1.36,3.37h0c-.02.34.07.44.4.45h26.78c.38,0,.4-.07.74-.15.18-.58.66-1.59.59-2.21-.07-.6-.09-.36-.38-.46,1.73-2.3,2.04-3.92,2.8-6.65.2-.71,1.48-4.23-.52-3.31l8.72-22.97c.54-1.34.93-2.58,1.46-3.9l2.91-7.66c.49-1.36.93-2.56,1.47-3.89,2.07-5.11,3.81-10.25,5.79-15.34,1-2.57,1.93-5.14,2.93-7.8,3.89-10.33,7.73-20.46,11.62-30.79l5.85-15.44c.92-2.52,1.76-5.12,3.11-7.44,1.73-2.98,5.34-7.13,8.09-3.45.77,1.04.87,1.27,1.04,2.89.54,5.13.27,12.49.02,17.6-.1,1.92-.03,4.15-.18,6.09-.13,1.55-.05,2.56-.17,4.01l-.17,4.01c-.07,1.37-.25,2.79-.34,4.17-.06.84.08,1.03,0,1.92-.92,11.82-1.45,23.71-2.39,35.51-.25,3.11-1.39,14.84-1.33,16.91.07,2-2.01,27.5-2.44,29.04-.17.62-.33,1.2-.46,1.77-.07.33-.13.75-.13.84,0,.44.16.44.12.91-.08,1.05-.69,2.21-.38,2.97-.94.25-1.01,1.54-1.08,2.38-.03.34.06.44.39.45h12.94c.74,0,1.28-1.9,1.15-2.45-.11-.46-.15,0-.26-.57-.18-.85.17-1.44-.31-2.33-.98-1.83-2.64-2.31-2.42-5.05.14-1.76,1.11-2.99-.08-4.47-.25-.32-.23-.42-.28-.85-.06-.51-.17-.52-.16-.93,0-.1.29-1.85.36-2.16.15-.65.28-1.62.38-2.17l6.21-40.23c.4-2.55.96-5.08,1.19-7.59l.97-6.53c.29-1.87.63-4.77,1.05-6.61l3.97-26.19c.45-2.09.9-6.19,1.37-8.68l.98-6.52c.11-.87.26-1.51.33-2.23.38-3.67,1.22-7.14,1.6-10.85l1-6.66c.4-2.08.95-7.26,1.42-8.79.66.02,1.75.3,2.34.45.13-1.65.36-2.75.49-4.31.1-1.29.51-2.95.63-4.16h17.09c1.59,0,3.16-1.53,3.66-2.8.55-1.38,2.93-11.29,3.41-13.25.21-.85.6-1.92.67-2.82,3.43,0,4-3.03,4.7-5.71.53-2.04,1.95-6.9,2.09-8.7.11-1.36-2.36-1.04-3.19-1.04h-13.23c.39-.7.87-2.39,1.15-3.27.33-1.02.85-2.39,1.01-3.42,1.06,0,3.78-.67,4.89-.99,1.9-.54,2.78-.91,4.25-1.84,3.49-2.19,4.29-5.34,4.63-9.66.21-2.66.23-4.87.45-7.43.14-1.66.05-3.77.13-5.49.03-.62.15-1.32.15-1.93l.15-7.29c.15-2.11-.02-4.99-.04-7.11-.06-5.47-2.59-9.54-6.58-11.8-4.46-2.53-1.61-1.75-4.1-3.36-2.89-1.87-2.93-.5-4.07-1.03-.47-.22-1.03-.4-1.47-.58-.75-.32-1.94-1.27-3.04-.77-.11-.61-.36-.53-.41-1.42-.03-.67.71-3.51.98-4.25.29-.81,1.66-1.13,3.13-2.08,3.83-2.48,6.79-5.94,8.77-10.01.25-.51.44-1.16.65-1.55,3.17.75,7.16-2.16,7.42-5.5.15-1.83-.66-3.53-2.07-3.86.38-1.1,5.45-6.8,5.83-11.59.14-1.79.2-3.67-.83-5.01-.52-.68-1.7-1.75-2.62-1.97.42-2.59.74-1.8,1.09-6.24.31-3.9-.89-6.59-4.05-7.81-.93-.36-1.98-.57-3.08-.65h-2.83Z" style="fill: #f0f9fa; fill-rule: evenodd; stroke-width: 0px;"/>
    <path d="M262.29,192.87h-1.78l-1.14-4.75c.62-.05.81-.28,1.49-.3.36.76.52,1.71.74,2.49.19.68.34,1.8.7,2.56h0ZM204.64,64.95c-1.73.12-3.33.45-4.62.83-.79.23-1.33.5-2.06.72-.91.27-2.03-.06-3.06-.06-3.35,0-6.78.47-9.08,1.78-1.95,1.11-3.61,3.13-2.89,5.94-4.48-2.26-6.58-2.76-5.49,1.9.99,4.27,3.88,10.44,8.69,13.66.97.65,1.96,1.29,3.09,1.52,1.37,2.8,1.94,5.47,3.33,8.32-1.66.44-2.13,2.94-1.17,4.9l.36.74c.87,1.79,3.29,3.43,5.01,3.57,2.48,4.33,4.5,6.49,8.04,9.27.46.36.6.49,1.08.79l2.19,1.27c1.4.73,3.42,1.59,4.82,1.89.5,1.08.47,2.63.21,3.24-.26.6-.19.72-1.12.73-.59,0-3.77,1.44-4.36,1.78-2.53,1.44-5.29,2.75-7.37,4.63-1.07.96-1.25,2.28-1.62,3.7l-.32,1.38c-.65-.9-3.23-4.58-4.2-5.17-1.11-.68-2.37-.63-3.4-.63-4.54,0-10.43,4.05-12.21,7.46-.36.68-.68,1.21-.88,2-.51,1.98-.27,2.75,1.92,4.85,2.74,2.62,1.79,1.19,2.21,3.31.45,2.28,2.61,5.07,5.02,6.69,1.2.81.79.21,1.21,1.98.82,3.37,1.96,6.98,2.82,10.37l2.42,8.81c.32,1.12.57,2.41,1.13,3.55,1.89,3.86,8.91,4.02,10.29,1.82.49-.79,1.17-2.09,1.51-2.97l.92-2.38c.12-.31.14-.48.27-.82l.84-2.43c.17-.63.52-.65,1.26-.65.36.74.44,1.15.67,1.85.25.74.41,1.22.65,1.93.45,1.34.87,2.45,1.29,3.76,2.42,7.5,5.17,15.01,7.39,22.52,1.42,4.78,2.75,9.72,3.61,14.09l1.57,9.73c.29,2.09,1.2,6.44,4.77,7.19,1.33,5.21,3.37,11.91,4.89,17.15,8.75,30.23,17.09,60.3,25.81,90.53l.07.24c1.03,4.18,2.35,8.41,3.6,12.71l3.69,12.95c.2.71.41,1.44.61,2.1.17.56.58,1.83.59,2.19-2.57-.61-2.33-2.57-4.15,1-.55,1.07-1.76,3.59-2.85,4.07-1.98.87-8.81,2.49-9.24,4.27-.11.44.08,1.08.29,1.69.56,1.65-.7.78.56,3.37h0c.16.34.31.44.64.45h26.78c.38,0,.36-.07.65-.15-.15-.58-.24-1.59-.66-2.21-.41-.6-.3-.36-.64-.46.42-2.3-.19-3.92-.99-6.65-.21-.71-.93-4.23-2.4-3.31l-4.35-22.97c-.22-1.34-.53-2.58-.76-3.9l-1.46-7.66c-.28-1.36-.53-2.56-.74-3.89-.84-5.11-2.02-10.25-2.94-15.34-.46-2.57-1-5.14-1.51-7.8-1.99-10.33-3.91-20.46-5.9-30.79l-2.94-15.44c-.51-2.52-1.15-5.12-1.13-7.44.03-2.98,1.28-7.13,6.12-3.45,1.37,1.04,1.59,1.27,2.68,2.89,3.46,5.13,7.38,12.49,10.03,17.6,1,1.92,2.34,4.15,3.28,6.09.76,1.55,1.41,2.56,2.11,4.01l2.12,4.01c.71,1.37,1.34,2.79,2.03,4.17.42.84.66,1.03,1.1,1.92,5.8,11.82,12.05,23.71,17.83,35.51,1.52,3.11,7.05,14.84,8.3,16.91,1.2,2,13.64,27.5,14.08,29.04.18.62.35,1.2.55,1.77.11.33.29.75.34.84.25.44.41.44.65.91.51,1.05.57,2.21,1.3,2.97-.8.25-.14,1.54.27,2.38.17.34.32.44.65.45h12.94c.74,0,.2-1.9-.25-2.45-.37-.46-.14,0-.59-.57-.66-.85-.65-1.44-1.64-2.33-2.02-1.83-3.95-2.31-5.29-5.05-.86-1.76-.59-2.99-2.62-4.47-.43-.32-.46-.42-.76-.85-.35-.51-.47-.52-.7-.93-.05-.1-.76-1.85-.87-2.16-.22-.65-.64-1.62-.85-2.17l-16.69-40.23c-1.05-2.55-1.94-5.08-3.13-7.59l-2.74-6.53c-.77-1.87-2.09-4.77-2.71-6.61l-10.94-26.19c-.74-2.09-2.62-6.19-3.57-8.68l-2.72-6.52c-.39-.87-.61-1.51-.94-2.23-1.71-3.67-2.85-7.14-4.57-10.85l-2.79-6.66c-.79-2.08-3.19-7.26-3.58-8.79.67.02,1.92.3,2.59.45-.81-1.65-1.2-2.75-1.97-4.31-.63-1.29-1.17-2.95-1.73-4.16h17.09c1.6,0,2.29-1.53,2.07-2.8-.24-1.38-3.5-11.29-4.13-13.25-.27-.85-.49-1.92-.93-2.82,3.43,0,2.28-3.03,1.45-5.71-.63-2.04-1.98-6.9-2.86-8.7-.67-1.36-2.95-1.04-3.78-1.04h-13.23c0-.7-.49-2.39-.71-3.27-.25-1.02-.51-2.39-.93-3.42,1.06,0,3.4-.67,4.33-.99,1.59-.54,2.26-.91,3.21-1.84,2.25-2.19,1.25-5.34-.87-9.66-1.3-2.66-2.54-4.87-3.78-7.43-.8-1.66-2.1-3.77-2.99-5.49-.32-.62-.6-1.32-.95-1.93l-4-7.29c-1.05-2.11-2.86-4.99-4.09-7.11-3.17-5.47-8.02-9.54-13.29-11.8-5.9-2.53-2.6-1.75-6.01-3.36-3.95-1.87-3.21-.5-4.66-1.03-.59-.22-1.25-.4-1.8-.58-.93-.32-2.67-1.27-3.47-.77-.46-.61-.66-.53-1.21-1.42-.41-.67-1.28-3.51-1.44-4.25-.17-.81,1.02-1.13,1.95-2.08,2.42-2.48,3.41-5.94,3.07-10.01-.04-.51-.23-1.16-.23-1.55,3.6.75,5.93-2.16,4.29-5.5-.9-1.83-2.66-3.53-4.27-3.86-.24-1.1,1.58-6.8-.77-11.59-.88-1.79-1.89-3.67-3.68-5.01-.91-.68-2.69-1.75-3.75-1.97-1.05-2.59-.29-1.8-2.46-6.24-1.91-3.9-4.64-6.59-8.49-7.81-1.14-.36-2.3-.57-3.46-.65h-2.83Z" style="fill: #f0f9fa; fill-rule: evenodd; stroke-width: 0px;"/>
  </g>
  <path d="M461.95,39.58h0c-1.07,0-1.94.87-1.94,1.94v4.68c0,1.07.87,1.94,1.94,1.94h0c1.07,0,1.94-.87,1.94-1.94v-4.68c0-1.07-.87-1.94-1.94-1.94Z" style="fill: #101d42; fill-rule: evenodd; stroke-width: 0px;"/>
  <path d="M455.91,43.09v343.96h12.38V24.92H111.65v7.54h333.62c5.85,0,10.64,4.79,10.64,10.64Z" style="fill: #eef4f7; fill-rule: evenodd; stroke-width: 0px;"/>
  <g>
    <g>
      <g>
        <path d="M415.74-33.57V23.79c0,.64-.52,1.16-1.16,1.16h0c-.64,0-1.16-.52-1.16-1.16v-57.35h2.32Z" style="fill: #0c0e17; fill-rule: evenodd; stroke-width: 0px;"/>
        <path d="M413.24,32.76c0,.38.31.68.68.68s.68-.31.68-.68v-3.25c0-1.27-.52-2.43-1.36-3.27h0c-.84-.84-2-1.36-3.27-1.36s-2.43.52-3.27,1.36h0c-.84.84-1.36,2-1.36,3.27v3.25c0,.38.31.68.68.68s.68-.31.68-.68v-3.25c0-.9.37-1.71.96-2.31.59-.59,1.41-.96,2.31-.96s1.72.37,2.31.96c.59.59.96,1.41.96,2.31v3.25Z" style="fill: #0c0e17; fill-rule: evenodd; stroke-width: 0px;"/>
        <path d="M414.79,23.92c.33-.17.46-.59.29-.92-.17-.34-.59-.47-.92-.29l-4.31,2.24c-.33.17-.46.59-.29.92.17.33.59.46.92.29l4.31-2.24Z" style="fill: #0c0e17; fill-rule: evenodd; stroke-width: 0px;"/>
      </g>
      <path d="M412.03,25.36c.33-.17.46-.59.29-.92-.17-.34-.59-.46-.92-.29l-17.26,8.89c-.33.17-.47.59-.29.92.17.33.59.46.92.29l17.26-8.89Z" style="fill: #0c0e17; fill-rule: evenodd; stroke-width: 0px;"/>
      <g>
        <path d="M382.27,48.75l6.32,6.32c.58.58,1.53.58,2.11,0l12.49-12.49c.58-.58.58-1.53,0-2.11l-6.32-6.32c-.58-.58-1.53-.58-2.11,0l-12.49,12.49c-.58.58-.58,1.53,0,2.11Z" style="fill: #d3e3eb; fill-rule: evenodd; stroke-width: 0px;"/>
        <g>
          <path d="M400.01,44.76s-.86.86-2.04,2.04c-1.17,1.18-1.25,1.88-1.35,2.84-.1.96-.57,5.59-.57,5.59,0,0-.06.9.61.24.67-.67,2.88-2.88,3.65-3.65.76-.76,1.34-2.03,1.48-3.07.14-1.04.61-3.47.61-3.47l-2.38-.52Z" style="fill: #0c0e17; fill-rule: evenodd; stroke-width: 0px;"/>
          <path d="M392.58,37.33s-.86.86-2.04,2.04c-1.18,1.18-1.88,1.25-2.84,1.35-.96.1-5.59.57-5.59.57,0,0-.9.06-.24-.61.67-.67,2.88-2.88,3.65-3.65.76-.76,2.03-1.34,3.07-1.48,1.04-.14,3.47-.61,3.47-.61l.52,2.38Z" style="fill: #0c0e17; fill-rule: evenodd; stroke-width: 0px;"/>
        </g>
        <path d="M382.14,46.96l8.23,8.23c.76.75,1.99.75,2.74,0l13.49-13.49c.75-.75.75-1.99,0-2.74l-8.23-8.23c-.75-.75-1.99-.75-2.74,0l-13.49,13.49c-.75.75-.75,1.99,0,2.74Z" style="fill: #101d42; fill-rule: evenodd; stroke-width: 0px;"/>
        <path d="M390.53,35.28l11.53,11.53c1.06,1.06,2.79,1.06,3.84,0l12.39-12.39c1.06-1.06,1.06-2.79,0-3.84l-11.53-11.53c-1.06-1.06-2.79-1.06-3.84,0l-12.39,12.39c-1.06,1.06-1.06,2.79,0,3.84Z" style="fill: #2c3d62; fill-rule: evenodd; stroke-width: 0px;"/>
        <path d="M385.85,40.4l11.09,11.09c.28.28.74.28,1.02,0l1.02-1.02c.28-.28.28-.74,0-1.02l-11.09-11.09c-.28-.28-.74-.28-1.02,0l-1.02,1.02c-.28.28-.28.74,0,1.02Z" style="fill: #d3e3eb; fill-rule: evenodd; stroke-width: 0px;"/>
        <path d="M411.47,36.3c1.05-1.06,1.05-2.79,0-3.84l-10.98-10.98,2.43-2.43c1.06-1.06,2.79-1.06,3.84,0l11.53,11.53c1.06,1.06,1.06,2.79,0,3.84l-12.39,12.39c-1.04,1.04-2.74,1.06-3.8.04-.01-.01-.03-.02-.04-.04l-.28-.28-.27-.27.86-.86,4.79-4.79,4.32-4.32Z" style="fill: #101d42; fill-rule: evenodd; stroke-width: 0px;"/>
      </g>
    </g>
    <g>
      <g>
        <path d="M163.58-33.57V23.79c0,.64.52,1.16,1.16,1.16h0c.64,0,1.16-.52,1.16-1.16v-57.35h-2.32Z" style="fill: #0c0e17; fill-rule: evenodd; stroke-width: 0px;"/>
        <path d="M166.08,32.76c0,.38-.31.68-.68.68s-.68-.31-.68-.68v-3.25c0-1.27.52-2.43,1.36-3.27h0c.84-.84,2-1.36,3.27-1.36s2.43.52,3.27,1.36h0c.84.84,1.36,2,1.36,3.27v3.25c0,.38-.31.68-.68.68s-.68-.31-.68-.68v-3.25c0-.9-.37-1.71-.96-2.31-.59-.59-1.41-.96-2.3-.96s-1.71.37-2.31.96c-.59.59-.96,1.41-.96,2.31v3.25Z" style="fill: #0c0e17; fill-rule: evenodd; stroke-width: 0px;"/>
        <path d="M164.53,23.92c-.33-.17-.46-.59-.29-.92.17-.34.59-.47.92-.29l4.31,2.24c.33.17.47.59.29.92-.17.33-.59.46-.92.29l-4.31-2.24Z" style="fill: #0c0e17; fill-rule: evenodd; stroke-width: 0px;"/>
      </g>
      <path d="M167.29,25.36c-.33-.17-.46-.59-.29-.92.17-.34.59-.46.92-.29l17.26,8.89c.33.17.46.59.29.92-.17.33-.59.46-.92.29l-17.26-8.89Z" style="fill: #0c0e17; fill-rule: evenodd; stroke-width: 0px;"/>
      <g>
        <path d="M197.05,48.75l-6.32,6.32c-.58.58-1.53.58-2.11,0l-12.49-12.49c-.58-.58-.58-1.53,0-2.11l6.32-6.32c.58-.58,1.53-.58,2.11,0l12.49,12.49c.58.58.58,1.53,0,2.11Z" style="fill: #d3e3eb; fill-rule: evenodd; stroke-width: 0px;"/>
        <g>
          <path d="M179.31,44.76s.86.86,2.04,2.04c1.18,1.18,1.25,1.88,1.35,2.84.1.96.57,5.59.57,5.59,0,0,.06.9-.61.24-.67-.67-2.88-2.88-3.65-3.65-.76-.76-1.34-2.03-1.48-3.07-.14-1.04-.61-3.47-.61-3.47l2.38-.52Z" style="fill: #0c0e17; fill-rule: evenodd; stroke-width: 0px;"/>
          <path d="M186.74,37.33s.86.86,2.04,2.04c1.18,1.18,1.88,1.25,2.84,1.35.96.1,5.59.57,5.59.57,0,0,.9.06.23-.61-.67-.67-2.88-2.88-3.65-3.65-.76-.76-2.03-1.34-3.07-1.48-1.04-.14-3.47-.61-3.47-.61l-.52,2.38Z" style="fill: #0c0e17; fill-rule: evenodd; stroke-width: 0px;"/>
        </g>
        <path d="M197.18,46.96l-8.23,8.23c-.75.75-1.99.75-2.74,0l-13.49-13.49c-.75-.75-.75-1.99,0-2.74l8.23-8.23c.75-.75,1.99-.75,2.74,0l13.49,13.49c.75.75.75,1.99,0,2.74Z" style="fill: #101d42; fill-rule: evenodd; stroke-width: 0px;"/>
        <path d="M188.79,35.28l-11.53,11.53c-1.05,1.06-2.79,1.06-3.84,0l-12.39-12.39c-1.06-1.06-1.06-2.79,0-3.84l11.53-11.53c1.06-1.06,2.79-1.06,3.84,0l12.39,12.39c1.06,1.06,1.06,2.79,0,3.84Z" style="fill: #2c3d62; fill-rule: evenodd; stroke-width: 0px;"/>
        <path d="M179.07,43.48h15.68c.4,0,.72.32.72.72v1.44c0,.4-.32.72-.72.72h-15.68c-.4,0-.72-.32-.72-.72v-1.44c0-.4.32-.72.72-.72Z" transform="translate(22.98 145.32) rotate(-45)" style="fill: #d3e3eb; stroke-width: 0px;"/>
        <path d="M167.86,36.3c-1.06-1.06-1.06-2.79,0-3.84l10.98-10.98-2.43-2.43c-1.06-1.06-2.79-1.06-3.84,0l-11.53,11.53c-1.06,1.06-1.06,2.79,0,3.84l12.39,12.39c1.04,1.04,2.74,1.06,3.8.04.01-.01.03-.02.04-.04l.28-.28.27-.27-.86-.86-4.79-4.79-4.32-4.32Z" style="fill: #101d42; fill-rule: evenodd; stroke-width: 0px;"/>
      </g>
    </g>
  </g>
  <g>
    <path d="M164.19,229.66c0-.35-.29-.64-.64-.64s-.64.29-.64.64v10.95c0,1.94-.3,5.32-1.42,8.7-.85,2.55-2.17,5.1-4.2,7-2,1.88-4.71,3.13-8.36,3.13-.15,0-.3,0-.45,0v1.28c.15,0,.3,0,.45,0,4.01,0,7.01-1.39,9.23-3.47,2.2-2.06,3.63-4.8,4.54-7.53,1.18-3.54,1.49-7.07,1.49-9.1v-10.95Z" style="fill: #0c0e17; fill-rule: evenodd; stroke-width: 0px;"/>
    <path d="M146.1,225.25h3.81c1.1,0,1.99.89,1.99,1.99v33.18c0,1.1-.89,1.99-1.99,1.99h-3.81c-1.1,0-1.99-.89-1.99-1.99v-33.17c0-1.1.89-1.99,1.99-1.99Z" style="fill: #0c0e17; stroke-width: 0px;"/>
    <path d="M162.77,225.25h1.56c.45,0,.81.36.81.81v2.78c0,.45-.37.82-.82.82h-1.56c-.45,0-.82-.37-.82-.82v-2.78c0-.45.37-.82.82-.82Z" style="fill: #0c0e17; stroke-width: 0px;"/>
    <path d="M142.26,225.25h11.5c.62,0,1.12.5,1.12,1.12v2.16c0,.62-.5,1.13-1.13,1.13h-11.5c-.62,0-1.13-.5-1.13-1.13v-2.16c0-.62.5-1.13,1.13-1.13Z" style="fill: #0c0e17; stroke-width: 0px;"/>
    <path d="M164.41,245.38c.11-.69-.36-1.35-1.05-1.46-.69-.11-1.35.36-1.46,1.05-.1.61-.23,1.28-.4,1.98-.16.66-.33,1.29-.52,1.88-.21.67.16,1.38.83,1.6.67.21,1.38-.16,1.6-.83.23-.73.42-1.42.58-2.06.17-.71.31-1.44.43-2.16Z" style="fill: #0c0e17; fill-rule: evenodd; stroke-width: 0px;"/>
    <path d="M179.55,225.25h8.2c.49,0,.88.39.88.88v1.69c0,.49-.39.88-.88.88h-8.2c-.48,0-.88-.39-.88-.88v-1.69c0-.49.4-.88.88-.88Z" style="fill: #0c0e17; stroke-width: 0px;"/>
    <path d="M183.09,225.81c.51-.89,1.64-1.19,2.53-.68.89.51,1.19,1.64.68,2.53l-6.55,11.35c-.34.59-.96.93-1.6.93h0s-28.65,0-28.65,0c-1.03,0-1.86-.83-1.86-1.86s.83-1.86,1.86-1.86h27.59l6.01-10.41Z" style="fill: #0c0e17; fill-rule: evenodd; stroke-width: 0px;"/>
    <g>
      <path d="M225.42,226.22h-90.09c-.96,0-1.75-.79-1.75-1.75v-10.06c0-.96.79-1.75,1.75-1.75h90.09c.96,0,1.75.79,1.75,1.75v10.06c0,.96-.79,1.75-1.75,1.75h0ZM173.56,223.8c.25,0,.45-.2.45-.45v-2.59c0-.25-.2-.45-.45-.45h-3.09c-.25,0-.45.2-.45.45v2.59c0,.25.2.45.45.45h3.09ZM167.06,223.8c.25,0,.45-.2.45-.45v-2.59c0-.25-.2-.45-.45-.45h-3.09c-.25,0-.45.2-.45.45v2.59c0,.25.2.45.45.45h3.09ZM154.05,223.8c.25,0,.45-.2.45-.45v-2.59c0-.25-.2-.45-.45-.45h-3.09c-.25,0-.45.2-.45.45v2.59c0,.25.2.45.45.45h3.09ZM147.54,223.8c.25,0,.45-.2.45-.45v-2.59c0-.25-.2-.45-.45-.45h-3.09c-.25,0-.45.2-.45.45v2.59c0,.25.2.45.45.45h3.09ZM173.56,218.58c.25,0,.45-.2.45-.45v-2.59c0-.25-.2-.45-.45-.45h-3.09c-.25,0-.45.2-.45.45v2.59c0,.25.2.45.45.45h3.09ZM167.06,218.58c.25,0,.45-.2.45-.45v-2.59c0-.25-.2-.45-.45-.45h-3.09c-.25,0-.45.2-.45.45v2.59c0,.25.2.45.45.45h3.09ZM154.05,218.58c.25,0,.45-.2.45-.45v-2.59c0-.25-.2-.45-.45-.45h-3.09c-.25,0-.45.2-.45.45v2.59c0,.25.2.45.45.45h3.09ZM147.54,218.58c.25,0,.45-.2.45-.45v-2.59c0-.25-.2-.45-.45-.45h-3.09c-.25,0-.45.2-.45.45v2.59c0,.25.2.45.45.45h3.09ZM219.21,223.8c.25,0,.45-.2.45-.45v-2.59c0-.25-.2-.45-.45-.45h-3.09c-.25,0-.45.2-.45.45v2.59c0,.25.2.45.45.45h3.09ZM212.7,223.8c.25,0,.45-.2.45-.45v-2.59c0-.25-.2-.45-.45-.45h-3.09c-.25,0-.45.2-.45.45v2.59c0,.25.2.45.45.45h3.09ZM206.2,223.8c.25,0,.45-.2.45-.45v-2.59c0-.25-.2-.45-.45-.45h-3.09c-.25,0-.45.2-.45.45v2.59c0,.25.2.45.45.45h3.09ZM199.69,223.8c.25,0,.45-.2.45-.45v-2.59c0-.25-.2-.45-.45-.45h-3.09c-.25,0-.45.2-.45.45v2.59c0,.25.2.45.45.45h3.09ZM193.19,223.8c.25,0,.45-.2.45-.45v-2.59c0-.25-.2-.45-.45-.45h-3.09c-.25,0-.45.2-.45.45v2.59c0,.25.2.45.45.45h3.09ZM219.21,218.58c.25,0,.45-.2.45-.45v-2.59c0-.25-.2-.45-.45-.45h-3.09c-.25,0-.45.2-.45.45v2.59c0,.25.2.45.45.45h3.09ZM212.7,218.58c.25,0,.45-.2.45-.45v-2.59c0-.25-.2-.45-.45-.45h-3.09c-.25,0-.45.2-.45.45v2.59c0,.25.2.45.45.45h3.09ZM206.2,218.58c.25,0,.45-.2.45-.45v-2.59c0-.25-.2-.45-.45-.45h-3.09c-.25,0-.45.2-.45.45v2.59c0,.25.2.45.45.45h3.09ZM199.69,218.58c.25,0,.45-.2.45-.45v-2.59c0-.25-.2-.45-.45-.45h-3.09c-.25,0-.45.2-.45.45v2.59c0,.25.2.45.45.45h3.09ZM193.19,218.58c.25,0,.45-.2.45-.45v-2.59c0-.25-.2-.45-.45-.45h-3.09c-.25,0-.45.2-.45.45v2.59c0,.25.2.45.45.45h3.09Z" style="fill: #101d42; fill-rule: evenodd; stroke-width: 0px;"/>
      <path d="M186.14,215.08h1.48c.14,0,.26.12.26.26v6.45c0,.14-.12.26-.26.26h-1.48c-.14,0-.26-.12-.26-.26v-6.45c0-.14.12-.26.26-.26Z" style="fill: #7fa9c9; stroke-width: 0px;"/>
      <path d="M182.85,215.08h1.48c.14,0,.26.11.26.26v2.97c0,.14-.12.26-.26.26h-1.48c-.14,0-.26-.11-.26-.26v-2.97c0-.14.12-.26.26-.26Z" style="fill: #0c0e17; stroke-width: 0px;"/>
      <path d="M177.31,216.3h1.55c.12,0,.22.1.22.22v1.3c0,.12-.1.22-.22.22h-1.55c-.12,0-.22-.1-.22-.22v-1.3c0-.12.1-.22.22-.22Z" style="fill: #7fa9c9; stroke-width: 0px;"/>
      <path d="M177.31,220.24h1.55c.12,0,.22.1.22.22v1.3c0,.12-.1.22-.22.22h-1.55c-.12,0-.22-.1-.22-.22v-1.29c0-.12.1-.22.22-.22Z" style="fill: #7fa9c9; stroke-width: 0px;"/>
      <rect x="136.84" y="214.64" width="2" height="1.74" rx=".22" ry=".22" style="fill: #7fa9c9; stroke-width: 0px;"/>
      <path d="M137.06,218.57h1.55c.12,0,.22.1.22.22v1.29c0,.12-.1.22-.22.22h-1.55c-.12,0-.22-.1-.22-.22v-1.3c0-.12.1-.22.22-.22Z" style="fill: #0c0e17; stroke-width: 0px;"/>
      <path d="M137.06,222.51h1.55c.12,0,.22.1.22.22v1.29c0,.12-.1.22-.22.22h-1.55c-.12,0-.22-.1-.22-.22v-1.29c0-.12.1-.22.22-.22Z" style="fill: #7fa9c9; stroke-width: 0px;"/>
    </g>
    <g>
      <path d="M145.86,314.02h3.97c2.26,0,4.1,1.84,4.1,4.1h0c0,2.25-1.84,4.1-4.1,4.1h-3.97c-2.25,0-4.1-1.84-4.1-4.1h0c0-2.25,1.84-4.1,4.1-4.1Z" style="fill: #0c0e17; fill-rule: evenodd; stroke-width: 0px;"/>
      <path d="M144.18,226.3h7.34c1.33,0,2.41,1.08,2.41,2.41h0c0,1.33-1.08,2.41-2.41,2.41h-7.34c-1.33,0-2.41-1.08-2.41-2.41h0c0-1.33,1.09-2.41,2.41-2.41Z" style="fill: #0c0e17; fill-rule: evenodd; stroke-width: 0px;"/>
      <path d="M147.84,248.5h0c1.17,0,2.12.65,2.12,1.43v70.85c0,.78-.96,1.43-2.12,1.43h0c-1.17,0-2.12-.65-2.12-1.43v-70.85c0-.78.96-1.43,2.12-1.43Z" style="fill: #0c0e17; fill-rule: evenodd; stroke-width: 0px;"/>
      <path d="M145.3,318.38c-.15-1.04.58-2,1.61-2.15,1.04-.15,2,.57,2.15,1.61l10.47,73.32c.15,1.04-.58,2-1.61,2.15-1.04.15-2-.58-2.15-1.61l-10.47-73.32Z" style="fill: #0c0e17; fill-rule: evenodd; stroke-width: 0px;"/>
      <path d="M144.07,317.12c.54-.9,1.71-1.18,2.61-.63.89.55,1.18,1.72.63,2.61l-44.87,73.32c-.54.9-1.71,1.18-2.61.63s-1.18-1.71-.63-2.61l44.87-73.32Z" style="fill: #0c0e17; fill-rule: evenodd; stroke-width: 0px;"/>
      <path d="M151.18,317.12c-.54-.9-1.71-1.18-2.61-.63-.9.55-1.18,1.72-.63,2.61l44.87,73.32c.55.9,1.72,1.18,2.61.63.9-.55,1.18-1.71.63-2.61l-44.87-73.32Z" style="fill: #0c0e17; fill-rule: evenodd; stroke-width: 0px;"/>
    </g>
  </g>
  <path d="M472.58,314.02h-3.97c-2.25,0-4.1,1.84-4.1,4.1h0c0,2.25,1.84,4.1,4.1,4.1h3.97c2.25,0,4.1-1.84,4.1-4.1h0c0-2.25-1.84-4.1-4.1-4.1Z" style="fill: #101d42; fill-rule: evenodd; stroke-width: 0px;"/>
  <path d="M473.14,318.38c.15-1.04-.58-2-1.61-2.15-1.04-.15-2,.57-2.15,1.61l-10.47,73.32c-.15,1.04.57,2,1.61,2.15,1.04.15,2-.58,2.15-1.61l10.47-73.32Z" style="fill: #101d42; fill-rule: evenodd; stroke-width: 0px;"/>
  <g>
    <path d="M478.42,19.49h0c-.48,0-.87.39-.87.88v378.26c0,.48.39.88.87.88h0c.48,0,.88-.4.88-.88V20.36c0-.48-.39-.88-.88-.88Z" style="fill: #0c0e17; fill-rule: evenodd; stroke-width: 0px;"/>
    <path d="M474.27,226.3h-7.34c-1.33,0-2.42,1.08-2.42,2.41h0c0,1.33,1.09,2.41,2.42,2.41h7.34c1.33,0,2.41-1.08,2.41-2.41h0c0-1.33-1.08-2.41-2.41-2.41Z" style="fill: #101d42; fill-rule: evenodd; stroke-width: 0px;"/>
    <path d="M470.6,212.68h0c1.17,0,2.12.95,2.12,2.12v105.28c0,1.17-.95,2.12-2.12,2.12h0c-1.17,0-2.13-.95-2.13-2.13v-105.27c0-1.17.95-2.13,2.13-2.13Z" style="fill: #101d42; stroke-width: 0px;"/>
    <path d="M474.38,317.12c-.55-.9-1.72-1.18-2.61-.63-.89.55-1.18,1.72-.63,2.61l44.87,73.32c.55.9,1.71,1.18,2.61.63s1.18-1.71.63-2.61l-44.87-73.32Z" style="fill: #101d42; fill-rule: evenodd; stroke-width: 0px;"/>
    <path d="M467.26,317.12c.55-.9,1.71-1.18,2.61-.63.89.55,1.18,1.72.63,2.61l-44.87,73.32c-.55.9-1.71,1.18-2.61.63s-1.18-1.71-.63-2.61l44.87-73.32Z" style="fill: #101d42; fill-rule: evenodd; stroke-width: 0px;"/>
    <path d="M470.6,219.54h0c-.8,0-1.45-.44-1.45-.97v-53.17c0-.53.65-.97,1.45-.97h0c.8,0,1.46.44,1.46.97v53.17c0,.54-.66.97-1.46.97Z" style="fill: #101d42; fill-rule: evenodd; stroke-width: 0px;"/>
    <path d="M481.28,132.04c0-.35-.29-.64-.64-.64s-.64.29-.64.64v17.92c0,1.94-.3,5.32-1.42,8.7-.85,2.55-2.18,5.1-4.2,7-.67.63-1.42,1.18-2.25,1.65v1.44c1.18-.57,2.22-1.31,3.12-2.16,2.2-2.06,3.63-4.8,4.54-7.53,1.18-3.54,1.49-7.07,1.49-9.1v-17.92Z" style="fill: #101d42; fill-rule: evenodd; stroke-width: 0px;"/>
    <path d="M468.69,135.29h3.81c1.09,0,1.99.99,1.99,2.21v36.81c0,1.22-.9,2.21-1.99,2.21h-3.81c-1.1,0-1.99-.99-1.99-2.21v-36.81c0-1.22.9-2.21,1.99-2.21Z" style="fill: #101d42; fill-rule: evenodd; stroke-width: 0px;"/>
    <rect x="454.25" y="139.23" width="3.19" height="4.41" rx=".81" ry=".81" transform="translate(-21.07 122.66) rotate(-14.98)" style="fill: #101d42; stroke-width: 0px;"/>
    <path d="M465.11,135.21h11.5c.62,0,1.13.5,1.13,1.13v2.16c0,.62-.5,1.12-1.12,1.12h-11.5c-.62,0-1.13-.5-1.13-1.13v-2.16c0-.62.5-1.13,1.13-1.13Z" transform="translate(-19.52 126.56) rotate(-15)" style="fill: #101d42; stroke-width: 0px;"/>
    <path d="M481.5,154.73c.11-.69-.36-1.35-1.05-1.46-.69-.11-1.35.36-1.46,1.05-.1.61-.23,1.28-.4,1.98-.16.66-.33,1.29-.51,1.88-.21.67.16,1.38.83,1.6.67.21,1.38-.16,1.6-.83.23-.73.42-1.42.58-2.06.17-.71.31-1.44.43-2.16Z" style="fill: #101d42; fill-rule: evenodd; stroke-width: 0px;"/>
    <path d="M479.85,133.89l-28.79,7.72c-1.09.29-2.21-.36-2.5-1.44l-1.36-5.06c-.29-1.09.36-2.21,1.45-2.5l28.79-7.71c1.08-.29,2.21.36,2.5,1.44l1.36,5.06c.29,1.09-.36,2.21-1.45,2.5Z" style="fill: #101d42; fill-rule: evenodd; stroke-width: 0px;"/>
    <g>
      <path d="M433.22,136.44l-1.17,6.09,4.85,3.86s10.44,11.31,13.27,42.25c2.83,30.94-7.71,44.07-7.71,44.07-5.24-7.13-21.34-4-21.34-4-6.68-28.47-24.22-43.7-24.22-43.7-.18-8.12-8.29-26.39-8.29-26.39,0,0-5.75-19.15-10.9-25.42,0,0,3.39-22.98-10.09-48.93,0,0,14.26-8.11,13.59-16.94,0,0,16.54,3.09,34.55,28.41,18.01,25.32,17.46,40.7,17.46,40.7Z" style="fill: #101d42; fill-rule: evenodd; stroke-width: 0px;"/>
      <path d="M368.34,85.67c-.23-.47-.47-.94-.71-1.4,0,0,.61-.35,1.58-.98,7.61.66,23.4,4.08,50.6,18.43l.27.43c-11.96-5.78-36.6-16.71-51.74-16.48h0ZM396.72,182.9c.11.76.17,1.46.18,2.11,0,0,.25.22.69.64,0,0,30.36-15,43.71-32.24-.17-.33-.33-.65-.49-.96-6.5,7.19-20.08,19.55-44.09,30.45h0ZM420.75,227.18c11.63-9.68,23.21-34.03,28.52-46.21l.07.5c-11.29,28.61-21.04,41.49-26.38,46.95-1.14.15-1.83.29-1.83.29-.12-.51-.25-1.02-.37-1.53h0ZM378.95,134.92c-.41-.64-.82-1.22-1.23-1.72,0,0,.05-.32.11-.93,0,0,32.8-8.39,54.16-4.01.09.36.18.71.25,1.04-9.62-1.23-27.97-1.75-53.29,5.62Z" style="fill: #0c0e17; fill-rule: evenodd; stroke-width: 0px;"/>
      <path d="M431.21,142.84s-10.75-31.43-21.21-37.97c0,0-6.45-27.5-28.78-37.54,0,0,41.1,5.31,53.01,35.86,0,0,12.49,5.79,14.28,14.05,1.8,8.26,1.55,10.81,4.29,17.6,2.35,6.94,4.19,8.71,8.21,16.15,4.02,7.44-1.68,19.97-1.68,19.97,10.87,30.94-16.86,61.74-16.86,61.74,10.4-22.17-2.62-47.24-2.62-47.24,3.67-11.77-8.65-42.62-8.65-42.62Z" style="fill: #2c3d62; fill-rule: evenodd; stroke-width: 0px;"/>
      <path d="M389.14,72.04c-2.39-1.8-5.02-3.4-7.93-4.71,0,0,36.63,4.74,50.75,30.98-.8-1.19-16.78-24.47-42.82-26.27h0ZM440.14,184.34c-.08.39-.18.77-.29,1.12,12.63-1.85,19.47-14.5,19.47-14.5,0,0,5.21-11.45,2.16-18.96,3.35,25.23-21.34,32.33-21.34,32.33h0ZM445.42,223.97c18.59-18.33,15.54-46.41,15.37-47.83,6.39,29.11-18.32,56.56-18.32,56.56,1.35-2.88,2.31-5.82,2.95-8.74h0ZM410.95,105.54h0s23.36-10.69,37.25,10.63c-2.57-7.68-13.98-12.98-13.98-12.98,0,0-13.43-5.14-24.22,1.68.32.2.64.42.95.66Z" style="fill: #101d42; fill-rule: evenodd; stroke-width: 0px;"/>
    </g>
  </g>
  <g>
    <g>
      <path d="M443.72,301.12c11.82-5.1,13.69,8.1,8.44,18.51-3.55,7.05-16.35,25.09-24.97,40.45h-9.84c3.36-23.22,14.16-53.68,26.37-58.96Z" style="fill: #80ccd2; fill-rule: evenodd; stroke-width: 0px;"/>
      <path d="M420.86,360.08c8.39-28.14,27.71-54.65,27.79-54.76.17-.23.49-.28.73-.12.23.17.29.49.12.72-.08.11-19.19,26.34-27.56,54.16h-1.07Z" style="fill: #86cfd5; fill-rule: evenodd; stroke-width: 0px;"/>
    </g>
    <g>
      <path d="M418.75,259.39c-11.91-11.68-20.05,3.13-18.39,18,1.57,14.11,15.33,62.51,13.68,82.87h4.69c10.67-26.09,15.27-85.92.01-100.87Z" style="fill: #8066ad; fill-rule: evenodd; stroke-width: 0px;"/>
      <path d="M417.01,360.27c9.91-41.13-6-98.03-6.05-98.22-.1-.35-.46-.57-.82-.49-.35.08-.56.44-.46.79.05.19,15.98,57.15,5.97,97.91h1.36Z" style="fill: #80ccd2; fill-rule: evenodd; stroke-width: 0px;"/>
    </g>
    <g>
      <path d="M389.42,285.22c-12.49-5.96-14.89,8.07-9.58,19.43,4.4,9.41,23.15,37.06,30.61,54.98l6.19-.21c-.69-25.1-12.47-67.16-27.22-74.2Z" style="fill: #86cfd5; fill-rule: evenodd; stroke-width: 0px;"/>
      <path d="M414.38,359.5c-5.67-33.78-30.27-69.86-30.36-70-.17-.25-.52-.32-.77-.16-.26.16-.32.51-.15.76.09.13,24.52,35.98,30.18,69.43l1.1-.04Z" style="fill: #80ccd2; fill-rule: evenodd; stroke-width: 0px;"/>
    </g>
    <g>
      <path d="M401.02,355.06h36.74c1.1,0,2,.89,2,2v9.07c0,1.1-.89,2-2,2h-36.74c-1.1,0-2-.89-2-2v-9.07c0-1.1.9-2,2-2Z" style="fill: #2d3d64; stroke-width: 0px;"/>
      <polygon points="431.46 362.44 407.32 362.44 401.02 368.13 406.17 387.96 419.39 387.96 432.61 387.96 437.76 368.13 431.46 362.44" style="fill: #2d3d64; fill-rule: evenodd; stroke-width: 0px;"/>
      <polygon points="401.02 368.13 402.08 372.21 436.7 372.21 437.76 368.13 401.02 368.13" style="fill: #101d42; fill-rule: evenodd; stroke-width: 0px;"/>
    </g>
  </g>
  <g>
    <polygon points="136.51 198.89 128.03 202.21 102.46 155.47 107.43 151.88 102.46 148.29 128.03 101.55 136.51 104.87 150.52 151.88 136.51 198.89" style="fill: #101d42; fill-rule: evenodd; stroke-width: 0px;"/>
    <path d="M100.14,314.02h3.97c2.25,0,4.1,1.84,4.1,4.1h0c0,2.25-1.84,4.1-4.1,4.1h-3.97c-2.25,0-4.1-1.84-4.1-4.1h0c0-2.25,1.84-4.1,4.1-4.1Z" style="fill: #101d42; fill-rule: evenodd; stroke-width: 0px;"/>
    <path d="M98.45,226.3h7.34c1.33,0,2.41,1.08,2.41,2.41h0c0,1.33-1.09,2.41-2.41,2.41h-7.34c-1.33,0-2.41-1.08-2.41-2.41h0c0-1.33,1.09-2.41,2.41-2.41Z" style="fill: #101d42; fill-rule: evenodd; stroke-width: 0px;"/>
    <path d="M102.12,212.68h0c1.17,0,2.12.95,2.12,2.12v105.28c0,1.17-.95,2.12-2.12,2.12h0c-1.17,0-2.12-.95-2.12-2.12v-105.28c0-1.17.95-2.12,2.12-2.12Z" style="fill: #101d42; stroke-width: 0px;"/>
    <path d="M99.58,318.38c-.15-1.04.57-2,1.62-2.15,1.04-.15,2,.57,2.15,1.61l10.47,73.32c.15,1.04-.58,2-1.61,2.15-1.04.15-2-.58-2.15-1.61l-10.47-73.32Z" style="fill: #101d42; fill-rule: evenodd; stroke-width: 0px;"/>
    <path d="M98.35,317.12c.54-.9,1.71-1.18,2.61-.63.89.55,1.18,1.72.63,2.61l-44.87,73.32c-.55.9-1.72,1.18-2.61.63-.9-.55-1.18-1.71-.63-2.61l44.87-73.32Z" style="fill: #101d42; fill-rule: evenodd; stroke-width: 0px;"/>
    <path d="M105.46,317.12c-.55-.9-1.71-1.18-2.61-.63-.9.55-1.18,1.72-.63,2.61l44.87,73.32c.55.9,1.71,1.18,2.61.63.89-.55,1.18-1.71.63-2.61l-44.87-73.32Z" style="fill: #101d42; fill-rule: evenodd; stroke-width: 0px;"/>
    <path d="M102.12,219.54h0c.8,0,1.45-.44,1.45-.97v-53.17c0-.53-.65-.97-1.45-.97h0c-.8,0-1.46.44-1.46.97v53.17c0,.54.65.97,1.46.97Z" style="fill: #101d42; fill-rule: evenodd; stroke-width: 0px;"/>
    <path d="M91.44,155.07c0-.35.29-.64.64-.64s.64.29.64.64v10.95c0,1.94.3,5.32,1.42,8.7.85,2.55,2.17,5.1,4.2,7,.67.63,1.42,1.18,2.25,1.65v1.44c-1.18-.57-2.22-1.31-3.12-2.16-2.2-2.06-3.63-4.8-4.54-7.53-1.18-3.54-1.49-7.07-1.49-9.1v-10.95Z" style="fill: #101d42; fill-rule: evenodd; stroke-width: 0px;"/>
    <path d="M100.22,155.41h3.81c1.1,0,1.99.89,1.99,1.99v33.18c0,1.1-.89,1.99-1.99,1.99h-3.81c-1.1,0-1.99-.89-1.99-1.99v-33.17c0-1.1.89-1.99,1.99-1.99Z" style="fill: #101d42; stroke-width: 0px;"/>
    <path d="M96.37,155.41h11.5c.62,0,1.12.5,1.12,1.12v2.16c0,.62-.5,1.13-1.13,1.13h-11.5c-.62,0-1.13-.5-1.13-1.13v-2.16c0-.62.5-1.12,1.12-1.12Z" style="fill: #101d42; stroke-width: 0px;"/>
    <path d="M91.22,170.79c-.11-.69.36-1.35,1.05-1.46.69-.11,1.35.36,1.46,1.05.1.61.23,1.28.4,1.98.16.66.33,1.29.52,1.88.21.67-.16,1.39-.83,1.6-.67.21-1.38-.16-1.6-.83-.23-.73-.43-1.42-.58-2.06-.17-.71-.31-1.44-.43-2.16Z" style="fill: #101d42; fill-rule: evenodd; stroke-width: 0px;"/>
    <path d="M92.52,147.22h29.81c1.13,0,2.04.92,2.04,2.04v5.23c0,1.13-.92,2.04-2.04,2.04h-29.81c-1.13,0-2.04-.92-2.04-2.04v-5.23c0-1.13.91-2.04,2.04-2.04Z" style="fill: #101d42; stroke-width: 0px;"/>
    <path d="M133.5,99.31h34.05c3.65,0,6.62,2.29,6.62,5.1v94.93c0,2.81-2.97,5.1-6.62,5.1h-34.05c-3.65,0-6.62-2.29-6.62-5.1v-94.93c0-2.81,2.97-5.1,6.62-5.1Z" style="fill: #101d42; fill-rule: evenodd; stroke-width: 0px;"/>
    <path d="M133.5,104.82c-.9,0-1.64.55-1.64,1.22v91.67c0,.67.74,1.22,1.64,1.22h34.05c.9,0,1.64-.55,1.64-1.22v-91.67c0-.67-.74-1.22-1.64-1.22h-34.05Z" style="fill: #fff; fill-rule: evenodd; stroke-width: 0px;"/>
    <path d="M134.26,151.9v10.81l32.52-32.52v-10.81l-32.52,32.52h0ZM134.26,169.05l32.52-32.52v18.01l-32.52,32.52v-18.01Z" style="fill: #eef4f7; fill-rule: evenodd; stroke-width: 0px;"/>
    <path d="M162.56,154.35c0-3.66,2.97-6.63,6.64-6.63-3.67,0-6.64-2.97-6.64-6.64,0,3.67-2.97,6.64-6.64,6.64,3.66,0,6.64,2.97,6.64,6.63Z" style="fill: #fff; fill-rule: evenodd; stroke-width: 0px;"/>
    <path d="M157.14,158.6c0-2.04,1.66-3.7,3.7-3.7-2.04,0-3.7-1.66-3.7-3.7,0,2.04-1.66,3.7-3.7,3.7,2.04,0,3.7,1.66,3.7,3.7Z" style="fill: #fff; fill-rule: evenodd; stroke-width: 0px;"/>
  </g>
  <path d="M498.59,380.22H80.74c-6.56,0-11.94,5.37-11.94,11.94h0c0,6.56,5.37,11.94,11.94,11.94h40.27c3.65,0,6.63,2.99,6.63,6.63h0c0,3.65-2.98,6.63-6.63,6.63h-14.73c-4.56,0-8.29,3.73-8.29,8.29h0c0,4.56,3.73,8.29,8.29,8.29h365.46c4.56,0,8.29-3.73,8.29-8.29h0c0-4.56-3.73-8.29-8.29-8.29h-11.61c-3.65,0-6.63-2.98-6.63-6.63h0c0-3.65,2.99-6.63,6.63-6.63h38.46c6.57,0,11.94-5.37,11.94-11.94h0c0-6.57-5.37-11.94-11.94-11.94h0ZM492.37,433.94c-4.38,0-7.96-3.58-7.96-7.96v-.66c0-4.38,3.58-7.96,7.96-7.96h0c4.38,0,7.96,3.58,7.96,7.96v.66c0,4.38-3.58,7.96-7.96,7.96h0Z" style="fill: #0c0e17; fill-rule: evenodd; stroke-width: 0px;"/>
  <g>
    <polygon points="216.61 351.66 199.5 355.21 184.38 351.66 192.51 340.02 224.74 340.02 216.61 351.66" style="fill: #59514a; fill-rule: evenodd; stroke-width: 0px;"/>
    <g>
      <path d="M170.66,344.34h33.29c1.43,0,2.59,1.16,2.59,2.59v8.88c0,1.43-1.16,2.59-2.59,2.59h-33.29c-1.43,0-2.59-1.16-2.59-2.59v-8.88c0-1.43,1.16-2.59,2.59-2.59Z" style="fill: #fff; stroke-width: 0px;"/>
      <rect x="170.77" y="345.98" width="38.47" height="14.06" rx="2.59" ry="2.59" style="fill: #f0cebd; stroke-width: 0px;"/>
      <path d="M175.45,347.97h33.29c1.43,0,2.59,1.16,2.59,2.59v8.88c0,1.43-1.16,2.59-2.59,2.59h-33.29c-1.43,0-2.59-1.16-2.59-2.59v-8.88c0-1.43,1.16-2.59,2.59-2.59Z" style="fill: #fff; stroke-width: 0px;"/>
    </g>
    <polygon points="154.51 351.66 174.41 354.62 184.37 351.66 176.24 340.02 146.38 340.02 154.51 351.66" style="fill: #101d42; fill-rule: evenodd; stroke-width: 0px;"/>
    <rect x="154.51" y="351.66" width="32.23" height="35.39" style="fill: #d18868; stroke-width: 0px;"/>
    <path d="M178.36,387.05h-14.02l3.31-29.62h5.97c2.61,0,4.74,2.13,4.74,4.74v24.88h0ZM160.51,387.05h-6v-29.62h8.35l-2.35,29.62Z" style="fill: #e59f8d; fill-rule: evenodd; stroke-width: 0px;"/>
    <rect x="184.38" y="351.66" width="32.23" height="35.39" style="fill: #101d42; stroke-width: 0px;"/>
    <path d="M191.2,387.05h25.4v-29.62h-20.66c-2.61,0-4.74,2.13-4.74,4.74v24.88Z" style="fill: #1e2c4f; fill-rule: evenodd; stroke-width: 0px;"/>
    <polygon points="239.32 368.82 229.07 370.34 223.93 368.82 228.13 362.82 243.51 362.82 239.32 368.82" style="fill: #0e1325; fill-rule: evenodd; stroke-width: 0px;"/>
    <g>
      <path d="M211.38,365.05h17.15c.74,0,1.33.6,1.33,1.33v4.58c0,.74-.6,1.33-1.33,1.33h-17.15c-.74,0-1.33-.6-1.33-1.33v-4.57c0-.74.6-1.34,1.34-1.34Z" style="fill: #fff; stroke-width: 0px;"/>
      <path d="M212.77,365.89h17.15c.74,0,1.34.6,1.34,1.34v4.57c0,.74-.6,1.33-1.33,1.33h-17.15c-.74,0-1.33-.6-1.33-1.33v-4.57c0-.74.6-1.34,1.34-1.34Z" style="fill: #f0cebd; stroke-width: 0px;"/>
      <rect x="212.52" y="366.92" width="19.82" height="7.24" rx="1.33" ry="1.33" style="fill: #fff; stroke-width: 0px;"/>
    </g>
    <polygon points="207.33 368.82 216.14 370.65 223.93 368.82 219.74 362.82 203.14 362.82 207.33 368.82" style="fill: #59514a; fill-rule: evenodd; stroke-width: 0px;"/>
    <rect x="222.71" y="368.82" width="16.6" height="18.23" style="fill: #d18868; stroke-width: 0px;"/>
    <path d="M227.03,387.05h7.22l-1.71-15.26h-3.07c-1.34,0-2.44,1.1-2.44,2.44v12.82h0ZM236.23,387.05h3.09v-15.26h-4.3l1.21,15.26Z" style="fill: #e59f8d; fill-rule: evenodd; stroke-width: 0px;"/>
    <rect x="207.33" y="368.82" width="16.6" height="18.23" style="fill: #0c0e17; stroke-width: 0px;"/>
    <path d="M220.42,387.05h-13.08v-15.26h10.64c1.34,0,2.44,1.1,2.44,2.44v12.82Z" style="fill: #0e1325; fill-rule: evenodd; stroke-width: 0px;"/>
  </g>
  <path d="M257.83,144.23c0-1.38,1.12-2.5,2.5-2.5-1.38,0-2.5-1.12-2.5-2.5,0,1.38-1.12,2.5-2.5,2.5,1.38,0,2.5,1.12,2.5,2.5Z" style="fill: #fff; fill-rule: evenodd; stroke-width: 0px;"/>
  <path d="M262.89,137.5c0-2.42,1.96-4.38,4.38-4.38-2.42,0-4.38-1.96-4.38-4.38,0,2.42-1.96,4.38-4.38,4.38,2.42,0,4.38,1.96,4.38,4.38Z" style="fill: #fff; fill-rule: evenodd; stroke-width: 0px;"/>
  <path d="M271.53,139.77c0-1.5,1.22-2.72,2.73-2.72-1.5,0-2.73-1.22-2.73-2.72,0,1.5-1.22,2.72-2.72,2.72,1.5,0,2.72,1.22,2.72,2.72Z" style="fill: #fff; fill-rule: evenodd; stroke-width: 0px;"/>
  <g>
    <path d="M288.89,126.97s.98-2.91,3.77-3.95c2.79-1.04,14.24-1.59,21.12.89,6.89,2.48,6.27,9.98,6.19,11.92-.08,1.93-6.11,5.57-6.11,5.57,0,0-16.95.7-18.03.15-1.08-.54-7.46-9.39-6.94-14.58Z" style="fill: #8d6187; fill-rule: evenodd; stroke-width: 0px;"/>
    <path d="M290.66,126.48s1.41-2.3,4.04-2.68c2.63-.39,12.38-.31,15.2,1.47,2.82,1.78,1.28,5.26,1.28,5.26l-20.52-4.05Z" style="fill: #230e19; fill-rule: evenodd; stroke-width: 0px;"/>
    <path d="M288.89,126.97s-8.28,3.42-11.42,5.99c-3.14,2.57-17.69,38.62-20.26,45.3,0,0-1.02,2.64,1.15,4.36,2.17,1.72,5.8,1.66,7.9.25,2.1-1.4,9.05-12.62,9.05-12.62l13.57-43.29Z" style="fill: #230e19; fill-rule: evenodd; stroke-width: 0px;"/>
    <path d="M312.55,133.2c6.88,12.23,14.83,32.09,14.71,51.13-.24,39.03-21.65,29.42-10.75,16.77l.44,2.48s-1.74,2.67-1.25,5.53c.51,2.96,16.92-24.39-8.27-72.57-.26-1.03,4.2-4.3,5.12-3.33Z" style="fill: #0c0e17; fill-rule: evenodd; stroke-width: 0px;"/>
    <path d="M273.88,229.79s-.03.08-.07.2c-.2.57-.71,2.16-.49,3.09.27,1.13,5.23,2.3,6.13,2.18.9-.12-1.36-6.83-5.56-5.47Z" style="fill: #0c0e17; fill-rule: evenodd; stroke-width: 0px;"/>
    <path d="M268.96,378.35l2.25-2.73s-.05-2.37.07-6.72c.81-28.47,4.01-136.29,4.13-138.51.13-2.55,16.46-6.28,29.13-4.36,12.67,1.92,13.75,4.25,13.75,4.25,0,0,15.12,145.98,14.72,147.2-.4,1.22-6.78.6-6.78.6l-.87-1.33s-19.39-114.46-24.36-120.37c-4.97-5.91-7.86.81-8.53,4.36-.67,3.56-13.96,114.66-14.5,116.13-.54,1.48-9,1.48-9,1.48Z" style="fill: #86cfd5; fill-rule: evenodd; stroke-width: 0px;"/>
    <path d="M274.95,245.09c.26-8.64.43-14.2.46-14.7.13-2.55,16.46-6.28,29.13-4.36,12.67,1.92,13.75,4.25,13.75,4.25,0,0,15.12,145.98,14.72,147.2-.4,1.22-6.78.6-6.78.6l-.87-1.33-.53-3.1c2.78-.06,4.5-1.82,4.32-10.4-.24-11.52-11.48-121.71-18.06-127.14s-21.15-5.57-27.79-3.16c-4.35,1.58-6.94,7.72-8.35,12.15h0ZM268.96,378.35s8.47,0,9-1.48c.54-1.48,13.83-112.58,14.5-116.13.67-3.56,3.56-10.27,8.53-4.36,0,0-1.68-3.73-6.68-3.66-5,.07-8.39,15.68-9.19,33.4-.8,17.72-8.05,76.66-8.46,80.42-.35,3.25-3.01,3.29-5.38,2.37l-.07,6.72-2.25,2.73Z" style="fill: #80ccd2; fill-rule: evenodd; stroke-width: 0px;"/>
    <path d="M275.05,241.52l.02-.64c.46-.33.88-.73,1.15-1.21.67-1.2,1.21-7.54,1.47-11.08.17-.07.35-.15.54-.22-.25,3.51-.82,10.24-1.55,11.55-.37.66-.99,1.19-1.62,1.59h0ZM307.15,226.46c.18.03.37.06.55.1.36,1.19,3.18,10.38,4.23,11.62.44.52,2.13.9,3.98,1.17l-1.33-11.08c.19.06.38.13.55.2l1.31,10.96c.98.13,1.97.23,2.83.3l.05.52c-.84-.07-1.83-.17-2.82-.31l16.44,137.67c-.1.12-.26.23-.49.31l-16.49-138.05c-2.01-.29-3.91-.73-4.44-1.35-1.19-1.41-4.36-11.9-4.37-11.93-.01-.04-.01-.08,0-.12Z" style="fill: #80ccd2; fill-rule: evenodd; stroke-width: 0px;"/>
    <path d="M275.05,241.52l.02-.64c.46-.33.87-.73,1.14-1.21.67-1.2,1.21-7.54,1.47-11.08h0s0,0,0,0h.02s0,0,0,0h0s.11-.05.11-.05h0s0,0,0,0h0s0,0,0,0h0s.05-.02.05-.02h0s0,0,0,0h0s0,0,0,0h0s.23-.1.23-.1h0s0,0,0,0c-.25,3.51-.82,10.24-1.55,11.55-.37.66-.99,1.19-1.62,1.59h0ZM307.15,226.46h0s0,0,0,0h0s0,0,0,0h0s0,0,0,0h.02s0,0,0,0h.02s0,0,0,0h.05s0,0,0,0h.03s0,0,0,0h0s0,0,0,0h0s0,0,0,0h0s0,0,0,0h0s0,0,0,0h0s0,0,0,0h0s0,0,0,0h0s.03,0,.03,0h.04s0,0,0,0h.06s0,.01,0,.01h.02s0,0,0,0h0s0,0,0,0h.02s0,0,0,0h0s0,0,0,0c.27.88,1.88,6.16,3.13,9.33-.25-.19-.5-.38-.76-.55-1.34-3.57-2.9-8.74-2.91-8.76-.01-.04-.01-.08,0-.12h0ZM314.58,228.26h0s0,0,0,0h0s0,0,0,0h0s0,0,0,0h0s0,0,0,0h0s.09.03.09.03h0s0,0,0,0h0s0,0,0,0h0s0,0,0,0h0s0,0,0,0h0s0,0,0,0h0s0,0,0,0h0s0,0,0,0h0s0,0,0,0h0s.02,0,.02,0h0s.07.03.07.03h0s0,0,0,0h0s0,0,0,0h0s0,0,0,0h0s0,0,0,0h0s0,0,0,0h0s0,0,0,0h0s0,0,0,0h0s0,0,0,0h0s1.31,10.97,1.31,10.97c.98.13,1.97.23,2.83.3v.14s.05.38.05.38c-.84-.07-1.83-.17-2.82-.31l16.44,137.67h0s0,.01,0,.01h0s-.03.04-.03.04h0s0,0,0,0h0s0,.01,0,.01l-.02.02h0s0,.01,0,.01h0s0,.01,0,.01h0s-.03.03-.03.03h0s0,.01,0,.01h0s0,0,0,0l-.04.03h0s0,0,0,0h0s0,0,0,0l-.04.02h0s0,0,0,0h0s0,0,0,0h0s-.03.02-.03.02h0s0,0,0,0h-.01s0,0,0,0h0s0,0,0,0h-.03s-.01.02-.01.02h-.01s-.02.01-.02.01h-.01s-16.49-138.05-16.49-138.05c-1.23-.18-2.41-.41-3.27-.71-.08-.22-.15-.42-.23-.62.75.34,2.05.61,3.44.81l-1.33-11.08Z" style="fill: #8066ad; fill-rule: evenodd; stroke-width: 0px;"/>
    <path d="M289.26,227.25c0-.14.11-.26.25-.27.14,0,.26.11.27.25,0,.02.21,8.69,1.66,15.52,1.23,5.78,3.58,8.51,5.1,10.28.27.31.51.6.72.85l.12.16c-.22-.01-.43,0-.63.04-.18-.23-.38-.46-.6-.72-1.36-1.58-3.37-3.91-4.69-8.41-.55-.42-4.27-3.29-4.81-4.77-.55-1.52-1.44-13.03-1.48-13.64.17-.03.34-.06.51-.09v.02s.92,12.04,1.46,13.53c.4,1.1,2.9,3.17,4.09,4.1-.11-.4-.2-.82-.3-1.26-1.46-6.87-1.66-15.59-1.66-15.61Z" style="fill: #80ccd2; fill-rule: evenodd; stroke-width: 0px;"/>
    <path d="M289.26,227.25c0-.14.11-.26.25-.27.14,0,.26.11.27.25,0,.01.04,1.79.22,4.37-.17.01-.35.03-.52.05-.18-2.6-.22-4.4-.22-4.41h0ZM296.47,252.95l.07.08c.27.31.51.6.72.85l.12.16h-.01s-.09,0-.14,0h-.04s0,0,0,0h-.02s-.09,0-.09,0h-.02s-.07,0-.07,0h-.07s-.01,0-.01,0l-.09.02h-.01s0,0,0,0h-.04c-.18-.22-.38-.45-.6-.71-.16-.18-.32-.37-.49-.57.29.04.55.09.82.15h0ZM285.64,232.27c-.26-2.85-.46-5.43-.48-5.71h0s0,0,0,0h0s0,0,0,0l.17-.03h0s0,0,0,0h.02s0,0,0,0h0s0,0,0,0h0s0,0,0,0h0s0,0,0,0h0s0,0,0,0h0s0,0,0,0h0s0,0,0,0h0s0,0,0,0h0s0,0,0,0h0s0,0,0,0h0s0,0,0,0h0s0,0,0,0h0s0,0,0,0h0s0,0,0,0h0s0,0,0,0h0s0,0,0,0h0s0,0,0,0h0s0,0,0,0v.02s.21,2.69.48,5.67c-.17.04-.34.07-.51.11Z" style="fill: #8066ad; fill-rule: evenodd; stroke-width: 0px;"/>
    <path d="M306.83,109.58l-.19,4.53v10.69c0,1.04.88,2.7,2.45,2.72,3.97,5-.41,9.98-3.36,10.44-2.94.46-17.16-2.97-18.11-3.79-.67-.57,3.59-5.73,3.2-7.38.31-.08-.04,0,.27-.1.81-.27,1.57-.65,2.07-1.19,1.55-1.69,1.48-9.23-.07-11.2-1.55-1.97,13.75-4.72,13.75-4.72Z" style="fill: #d96858; fill-rule: evenodd; stroke-width: 0px;"/>
    <path d="M288.89,126.97c.94-.26,2.79-.81,3.57-.9,1.1,6.27,7.05,12.55,15.83.98,4.53.85,12.44,5.16,12.44,5.16,3.59,1.84,5.86,3.07,6.46,7.14.18,1.24-7.64,3-7.08,4.62,8.68,24.89-6.68,34.04,1.15,91.58-8.68-1.15-41.08-15.43-47.94-2.48-.48-.48-1.26-2.55-.6-5.71,7.89-37.64-8.51-90.71,16.17-100.39Z" style="fill: #8d6187; fill-rule: evenodd; stroke-width: 0px;"/>
    <path d="M290.64,126.48c.71-.19,1.41-.37,1.82-.41,1.1,6.27,7.05,12.55,15.83.98.98.18,2.12.53,3.3.96-6.96,11.65-21.66,12.25-20.99-1.32,0-.02.02-.1.04-.21Z" style="fill: #230e19; fill-rule: evenodd; stroke-width: 0px;"/>
    <path d="M306.05,129.69c.73-.75,1.47-1.62,2.24-2.64,4.53.85,12.44,5.16,12.44,5.16,3.59,1.84,5.86,3.07,6.46,7.14.18,1.24-7.64,3-7.08,4.62,8.68,24.89-6.68,34.04,1.15,91.58-3.94-.52-12.78-3.76-21.89-5.91,2.44-1.94,5.13-5.93,6.41-14.11,2.63-16.87,1.16-31.26,1.16-31.26l2.94-6.04.62-29.64c.42-9.3-1.83-15.59-4.46-18.9Z" style="fill: #230e19; fill-rule: evenodd; stroke-width: 0px;"/>
    <path d="M310.5,186.2h-6.59c-1.01-2.7-2.04-5.41-3.06-8.12h-12.7c-.58,2.71-1.06,5.42-1.45,8.12h-6.46c1.99-13.95,6.01-23.04,11.71-35.67h6.46c3.42,12.29,7.87,23.7,12.09,35.67h0ZM298.58,172.05c-1.54-4.4-2.93-8.7-4.16-13.2-1.7,4.39-3.26,8.7-4.66,13.2h8.83Z" style="fill: #fff; fill-rule: evenodd; stroke-width: 0px;"/>
    <polygon points="279.79 86.4 285.9 85.91 283.82 99.91 280.87 100.63 279.79 86.4" style="fill: #392746; fill-rule: evenodd; stroke-width: 0px;"/>
    <path d="M282.8,98.99c2.73-.09,5.02,2.04,5.11,4.77.1,2.73-2.04,5.02-4.77,5.11-2.73.09-5.02-2.04-5.11-4.77-.09-2.73,2.04-5.02,4.77-5.11Z" style="fill: #d96858; fill-rule: evenodd; stroke-width: 0px;"/>
    <path d="M316.64,97.81c2.73-.1,5.02,2.04,5.11,4.77.09,2.73-2.04,5.02-4.77,5.11-2.73.09-5.02-2.04-5.11-4.77-.09-2.73,2.04-5.02,4.77-5.11Z" style="fill: #d96858; fill-rule: evenodd; stroke-width: 0px;"/>
    <path d="M297.72,73.45h0c9.31-.33,17.19,7.02,17.51,16.33l.54,15.38c.32,9.31-7.02,17.19-16.33,17.51h0c-9.31.32-17.19-7.02-17.51-16.33l-.54-15.38c-.32-9.31,7.02-17.19,16.33-17.51Z" style="fill: #e29983; fill-rule: evenodd; stroke-width: 0px;"/>
    <path d="M311.54,79.84c2.2,2.74,3.56,6.19,3.69,9.95l.54,15.38c.32,9.31-7.02,17.19-16.33,17.51h0c-.21,0-.42,0-.63,0,8.56-1.04,11.77-10.27,11.77-12.82v-6.96c0-5.41-4.14-10.18-8.32-10.18h-17.87c-2.15,0-2.25.62-2.82,1.3l-.18-5.14c-.13-3.76.99-5.21,2.99-8.11,8.51-.44,18.75-.87,27.16-.94Z" style="fill: #e1876e; fill-rule: evenodd; stroke-width: 0px;"/>
    <path d="M313.75,97.35s-.69,3.83,1.92,4.9c0,0-.17-4.77,2.91-4.12,0,0,8.17-14.36-2.26-18.48.09.34-8.72,1.31-9.95,6.65,3.52,2.03.38,11.05,7.38,11.05Z" style="fill: #392746; fill-rule: evenodd; stroke-width: 0px;"/>
    <path d="M313.75,97.35s-.69,3.83,1.92,4.9c0,0-.17-4.77,2.91-4.12,0,0,1.93-3.4,2.72-7.36-6.46,3.87-11.85-1.77-14.54-5.57-.16.34-.29.71-.38,1.1,3.52,2.03.38,11.05,7.38,11.05Z" style="fill: #251b3b; fill-rule: evenodd; stroke-width: 0px;"/>
    <path d="M326.81,373.07v-1.65c0-.24.05-1.15,1.28-1.15h2.98c.8,0,1.98.28,1.98,1.8v5.16c0,.93,3.58,3.22,4,3.92.42.7.37,1.48.28,1.65-.09.16-9.04,1.13-10.06.58-1.02-.56-.63-5.82-.63-5.82l.17-4.49Z" style="fill: #2c3d62; fill-rule: evenodd; stroke-width: 0px;"/>
    <path d="M269.19,385.15s-16.79.46-17.44-.93v-1.86c0-.74.77-1.81,2.85-2.5,2.09-.7,6.54-2.04,7.91-2.53,1.37-.49,5.29-5.45,5.84-6.05.56-.6,3.15,1.35,3.71,1.67.56.32.19,1.11-.09,2.04-.28.93-2.78,10.16-2.78,10.16Z" style="fill: #2c3d62; fill-rule: evenodd; stroke-width: 0px;"/>
    <rect x="251.18" y="384.22" width="28.01" height="2.83" rx=".58" ry=".58" style="fill: #d3e3eb; stroke-width: 0px;"/>
    <path d="M251.75,384.22h9.12c.32,0,.58.26.58.58v1.67c0,.32-.26.58-.58.58h-9.13c-.32,0-.58-.26-.58-.58v-1.67c0-.32.26-.58.58-.58Z" style="fill: #b1c9d6; stroke-width: 0px;"/>
    <path d="M263.63,377.94c.09.33.93,1.95.35,2.34-.58.39-2.43,1.81-3.48,1.81h-6.01c-2.76,0-2.12-.96-2.12-.96-.43.44-.62.88-.62,1.24v1.86h26.85s1.14-1.32,1.14-4.43.15-4.89-.3-5.39c-.45-.5-.77-.24-.77-.24-2.08,1.81-4.61.51-5.94-.21-.14-.08-.27-.15-.4-.23-1.07-.64-1.73-1.21-2.68-.67-1.07.6-4.82,3.27-5.42,3.69-.6.42-.7.88-.6,1.21Z" style="fill: #101d42; fill-rule: evenodd; stroke-width: 0px;"/>
    <path d="M251.75,382.83v1.4h26.85s1.14-1.32,1.14-4.43.15-4.89-.3-5.39c.06,1-.47,2.11-1.39,2.11h-5.35c-1.96,0-2.36,1.05-2.36,1.05,0,0-.99,1.96-1.71,3.35-.71,1.39-1.9,2.34-2.77,2.34h-12.91c-.61,0-.97-.2-1.19-.42Z" style="fill: #0c0e17; fill-rule: evenodd; stroke-width: 0px;"/>
    <path d="M326.96,384.55l-.77-.32s-.32-.3-.32-.89v-1.94c0-.47-.5-.55-.5-1.38v-5.79c0-1.07,1.32-1.72,2.18-2.35.87-.63,2.07-.05,2.07,1.21v3.71c0,1.05-.19,1.51-.91,2.03-.73.51-1.25.91-1.47,1.05-.22.14-.11.8.15,1.33.26.53,1.19,1.65,3.39,1.65h4.27c1.1,0,1.53-.7,1.53-1.68s-4.21-1.73-4.21-3.97v-4.28c0-.51.4-.67.59-.79.18-.12.49.01,1.09.9.6.89.42,1.59.42,3.14s.93,2.95,2.18,4.01c1.25,1.07,2.42,1.92,2.42,4.05s-11.3,2.48-12.1.32Z" style="fill: #101d42; fill-rule: evenodd; stroke-width: 0px;"/>
    <path d="M325.37,379.34v-5.13c0-1.07,1.32-1.72,2.18-2.35.07-.05.13-.09.2-.12-.03.02-.57.43-.57,1.36v3.04c0,1.05-.25,2.02-1.82,3.21h0ZM333.6,372.43c.13.14.27.33.45.59.6.89.42,1.59.42,3.14,0,.8.24,1.55.65,2.24h0s-1.32-1.73-1.47-2.37c-.09-.37-.07-2.17-.04-3.59h0ZM337.84,381.23c.71.72,1.23,1.58,1.23,2.99,0,1.88-8.75,2.37-11.4,1l2.29.43-1.17-1.19s.41-1.05,1.16-1.05h6.18c.82,0,1.7-.36,1.7-2.18Z" style="fill: #0c0e17; fill-rule: evenodd; stroke-width: 0px;"/>
    <path d="M326.19,384.22h12.87c.32,0,.58.26.58.58v1.67c0,.32-.26.58-.58.58h-12.87c-.32,0-.58-.26-.58-.58v-1.67c0-.32.26-.58.58-.58Z" style="fill: #d3e3eb; stroke-width: 0px;"/>
    <path d="M326.19,384.22h3.95c.32,0,.58.26.58.58v1.67c0,.32-.26.58-.58.58h-3.95c-.32,0-.58-.26-.58-.58v-1.67c0-.32.26-.58.58-.58Z" style="fill: #b1c9d6; stroke-width: 0px;"/>
    <path d="M333.02,372.97c.12-.04.18-.15.14-.25-.04-.1-.17-.15-.29-.12l-1.83.56-1.83-.56c-.12-.04-.25.01-.29.12-.04.1.02.21.14.25l1.31.4-1.31.4c-.12.04-.18.15-.14.25.04.1.17.15.29.12l1.83-.56,1.83.56c.12.04.25-.02.29-.12.04-.1-.02-.21-.14-.25l-1.31-.4,1.31-.4h0ZM329.22,376.36c-.12-.04-.25.02-.29.12-.04.1.02.21.14.25l1.31.4-1.31.4c-.12.04-.18.15-.14.25.04.1.17.15.29.12l1.83-.56,1.83.56c.12.04.25-.02.29-.12.04-.1-.02-.21-.14-.25l-1.31-.4,1.31-.4c.12-.04.18-.15.14-.25-.04-.1-.17-.15-.29-.12l-1.83.56-1.83-.56h0ZM329.22,374.49c-.12-.04-.25.02-.29.12-.04.1.02.21.14.25l1.31.4-1.31.4c-.12.04-.18.15-.14.25.04.1.17.15.29.11l1.83-.56,1.83.56c.12.04.25-.02.29-.11.04-.1-.02-.21-.14-.25l-1.31-.4,1.31-.4c.12-.04.18-.15.14-.25-.04-.1-.17-.15-.29-.12l-1.83.56-1.83-.56Z" style="fill: #fff; fill-rule: evenodd; stroke-width: 0px;"/>
    <path d="M269.36,373.78c.11.08.25.06.31-.04.06-.11.02-.25-.09-.34l-1.69-1.26-.08-.23-.36.44.08.06.69,1.99c.04.13.18.21.29.18.12-.03.17-.15.13-.28l-.5-1.43,1.21.9h0ZM264.49,375.71c.11-.11.22-.23.34-.35l.48,1.39c.04.13-.01.26-.13.28-.12.03-.25-.05-.29-.18l-.39-1.13h0ZM264.84,375.34l1.18.88c.11.08.25.06.31-.04.06-.1.02-.25-.09-.33l-1.11-.83c-.1.11-.2.21-.3.32h0ZM266.01,374.05c.15-.17.3-.35.45-.52l1.46,1.09c.11.08.15.23.09.33-.06.1-.2.12-.31.04l-1.21-.9.5,1.43c.04.13-.01.26-.13.28-.12.03-.25-.06-.29-.18l-.55-1.57Z" style="fill: #fff; fill-rule: evenodd; stroke-width: 0px;"/>
    <path d="M300.57,100.54l4.22-1.24c.45-.13.92.13,1.05.57h0c.13.45-.13.92-.57,1.05l-4.22,1.24c-.45.13-.92-.13-1.05-.57h0c-.13-.45.13-.92.57-1.05Z" style="fill: #0c0e17; fill-rule: evenodd; stroke-width: 0px;"/>
    <path d="M289.29,101.89l-4.97-.73c-.46-.07-.89.25-.96.71h0c-.07.46.25.89.71.96l4.97.73c.46.07.89-.25.96-.71h0c.07-.46-.25-.89-.71-.96Z" style="fill: #0c0e17; fill-rule: evenodd; stroke-width: 0px;"/>
    <g>
      <path d="M304.47,110.6c-1.27.03-2.28,1.08-2.25,2.35.03,1.27,1.08,2.28,2.35,2.25,1.27-.03,2.28-1.08,2.25-2.35-.03-1.27-1.08-2.28-2.35-2.25Z" style="fill: #d96858; fill-rule: evenodd; stroke-width: 0px;"/>
      <path d="M286.3,110.56c-1.27.03-2.27,1.08-2.25,2.35.03,1.27,1.08,2.28,2.35,2.25,1.27-.03,2.28-1.08,2.25-2.35s-1.08-2.28-2.35-2.25Z" style="fill: #d96858; fill-rule: evenodd; stroke-width: 0px;"/>
    </g>
    <path d="M302.97,103.53h0c-.86.02-1.54.74-1.52,1.59l.05,2.03c.02.86.74,1.54,1.59,1.52h0c.86-.02,1.54-.74,1.52-1.59l-.05-2.03c-.02-.86-.74-1.54-1.59-1.52Z" style="fill: #0c0e17; fill-rule: evenodd; stroke-width: 0px;"/>
    <path d="M287.05,103.88h0c-.86.02-1.54.74-1.52,1.59l.05,2.03c.02.86.74,1.54,1.59,1.52h0c.86-.02,1.54-.74,1.52-1.59l-.05-2.03c-.02-.86-.74-1.54-1.59-1.52Z" style="fill: #0c0e17; fill-rule: evenodd; stroke-width: 0px;"/>
    <path d="M296.53,114.89s.09.05.13.08h0s0,0,0,0h0s.01,0,.01,0h0c.39.27.64.71.64,1.22,0,.82-.67,1.48-1.48,1.48s-1.49-.66-1.49-1.48c0-.38.14-.72.37-.98h0c.13-.19,0-.36-.21-.43s-.34-.12-.34-.26c0-.14.17-.17.28-.17,1.06.03,1.78.35,2.07.52Z" style="fill: #de7860; fill-rule: evenodd; stroke-width: 0px;"/>
    <path d="M323.41,173.51c.7-.56,1.23-1.85.93-3.19-.29-1.27-4.02-9.29-5.93-13.9.17-4.86.64-9.06.9-6.96.3,2.44,5.89,16.63,6.78,18.71.89,2.08.36,3.55-.16,3.88-.52.33-2.52,1.46-2.52,1.46h0Z" style="fill: #230e19; fill-rule: evenodd; stroke-width: 0px;"/>
    <path d="M313.01,128.56c-5,13.11-9.92,33.93-6.99,52.74,6.01,38.57,25.76,25.9,13.12,15l-.07,2.52s2.12,2.39,2.05,5.29c-.07,3.01-20.34-21.62-2.55-73,.1-1.05-4.79-3.64-5.56-2.54Z" style="fill: #0c0e17; fill-rule: evenodd; stroke-width: 0px;"/>
    <path d="M324.41,134.38s4.75,3.06,6.81,10.1c2.05,7.04,6.06,25.82,6.45,28.36.39,2.54,3.05,10.41-6.65,12.52-9.7,2.11-40.07,10.21-40.07,10.21,0,0-.54,0-.59-.35,0,0,.33-2.19-1.76-5.73,0,0-.1-.34.33-.56.43-.22,33.35-14.83,34.18-15.22.83-.39,1.57-1.86,1.22-3.37-.34-1.52-5.62-12.71-6.8-16.14-1.17-3.42-1.37-15.26,6.87-19.81Z" style="fill: #8d6187; fill-rule: evenodd; stroke-width: 0px;"/>
    <path d="M338.19,175.79c.41,3.37-.05,8.02-7.17,9.57-9.7,2.11-40.07,10.21-40.07,10.21,0,0-.54,0-.59-.35,0,0,.33-2.19-1.76-5.73,0,0-.1-.34.33-.56.2-.1,7.35-3.28,15.07-6.71.02.93.16,1.92.62,2.53,1.08,1.43,5.11,2.51,11.72,1.04,6.62-1.47,22.28-4.15,21.84-9.99Z" style="fill: #230e19; fill-rule: evenodd; stroke-width: 0px;"/>
    <path d="M259.83,154.28c-2.5,9.64-2.98,16.97-2.85,25.69,3.05.37,6.09.74,9.14,1.12l-1.42-27.69-4.86.89Z" style="fill: #230e19; fill-rule: evenodd; stroke-width: 0px;"/>
    <path d="M258.91,156.4c-1.62,9.72-1.84,14.4-1.83,21.02,4.02,2.36,6.31-2.84,6.19-4.98-.13-2.23-.49-11.71-1.34-12.55-.85-.85-1.49-2.9-3.02-3.49Z" style="fill: #8d6187; fill-rule: evenodd; stroke-width: 0px;"/>
    <g>
      <path d="M311.94,202.85h18.94c1.9,0,3.44,1.54,3.44,3.44v17.46c0,1.9-1.54,3.44-3.44,3.44h-18.94c-1.9,0-3.44-1.54-3.44-3.44v-17.46c0-1.9,1.54-3.44,3.44-3.44Z" style="fill: #0a1531; stroke-width: 0px;"/>
      <path d="M307.68,192.97h26.26c.81,0,1.46.66,1.46,1.47v10.71c0,1.75-1.43,3.19-3.19,3.19h-22.81c-1.75,0-3.19-1.43-3.19-3.19v-10.71c0-.81.66-1.47,1.47-1.47Z" style="fill: #101d42; fill-rule: evenodd; stroke-width: 0px;"/>
      <path d="M320.5,202.85h16.6c1.81,0,3.27,1.47,3.27,3.27v17.8c0,1.81-1.47,3.27-3.27,3.27h-16.6c-1.81,0-3.27-1.47-3.27-3.27v-17.8c0-1.8,1.47-3.27,3.27-3.27Z" style="fill: #101d42; stroke-width: 0px;"/>
      <path d="M315.84,192.97h26.26c.81,0,1.47.66,1.47,1.47v10.71c0,1.75-1.43,3.19-3.19,3.19h-22.81c-1.75,0-3.19-1.43-3.19-3.19v-10.71c0-.81.66-1.47,1.46-1.47Z" style="fill: #2c3d62; fill-rule: evenodd; stroke-width: 0px;"/>
      <path d="M322.75,210.56h12.11c.84,0,1.53.68,1.53,1.53v10.01c0,.84-.69,1.53-1.53,1.53h-12.11c-.84,0-1.53-.68-1.53-1.53v-10.01c0-.84.68-1.53,1.53-1.53Z" style="fill: #0e1325; stroke-width: 0px;"/>
      <path d="M324.24,212.07h5.65c.39,0,.71.32.71.71v4.67c0,.39-.32.71-.71.71h-5.65c-.39,0-.71-.32-.71-.71v-4.67c0-.39.32-.71.71-.71Z" style="fill: #101d42; stroke-width: 0px;"/>
      <path d="M323.97,218.91h6.2c.24,0,.44.2.44.44v.27c0,.24-.2.44-.44.44h-6.19c-.24,0-.44-.2-.44-.44v-.27c0-.24.2-.44.44-.44Z" style="fill: #101d42; stroke-width: 0px;"/>
      <path d="M323.97,220.82h6.19c.24,0,.44.2.44.44v.27c0,.24-.2.44-.44.44h-6.19c-.24,0-.44-.2-.44-.44v-.27c0-.24.2-.44.44-.44Z" style="fill: #101d42; stroke-width: 0px;"/>
      <rect x="335.4" y="194.68" width="5.95" height="5.13" rx=".6" ry=".6" style="fill: #101d42; stroke-width: 0px;"/>
      <path d="M335.77,200.44h5.21c.2,0,.37.17.37.37v.23c0,.2-.17.37-.37.37h-5.21c-.2,0-.37-.17-.37-.37v-.23c0-.2.17-.37.37-.37Z" style="fill: #101d42; stroke-width: 0px;"/>
      <path d="M335.77,202.04h5.21c.2,0,.37.17.37.37v.23c0,.2-.17.37-.37.37h-5.21c-.2,0-.37-.17-.37-.37v-.22c0-.2.17-.37.37-.37Z" style="fill: #101d42; stroke-width: 0px;"/>
    </g>
    <g>
      <path d="M279.22,188.24l16.56-13.58c.31-.25,2.32-2.94,2.32-2.94l5.45,9.44c.2.35-.02.76-.16,1.12l-3.16,7.83-14.95,8.62c-.34.2-.7.2-.9-.15l-5.32-9.21c-.2-.35-.14-.87.16-1.12Z" style="fill: #0c0e17; fill-rule: evenodd; stroke-width: 0px;"/>
      <path d="M303.14,182.87l-1.99,4.94-3.45-5.97c-.37-.63-.48-1.59-.24-2.13l1.23-2.86c.23-.54.72-.46,1.08.17l3.37,5.84Z" style="fill: #101d42; fill-rule: evenodd; stroke-width: 0px;"/>
      <path d="M276.6,189.25l17.27-9.29c.34-.18.77-.08.97.26l5.34,9.26c.2.34.08.77-.26.97l-18.21,10.51c-.34.19-.77.08-.97-.26l-5.71-9.89c-.19-.34,1.22-1.38,1.56-1.56Z" style="fill: #101d42; fill-rule: evenodd; stroke-width: 0px;"/>
      <path d="M275.12,190.78l19.06-11.01c.17-.1.41-.42.56-.72l3.26-7c.14-.3.12-.47-.05-.37l-19.06,11.01c-.17.09-.41.42-.55.72l-3.26,7c-.14.3-.12.47.05.37Z" style="fill: #0d152d; fill-rule: evenodd; stroke-width: 0px;"/>
      <path d="M291.67,175.86c.88,1.52-1.05,4.27-4.31,6.15-3.25,1.88-6.6,2.17-7.48.65l-3.16-4.33h0c-.43-.86,2.02-3.18,5.52-5.19,3.5-2.02,6.72-2.98,7.26-2.18h0l2.17,4.9Z" style="fill: #101d42; fill-rule: evenodd; stroke-width: 0px;"/>
      <path d="M285.82,182.78c-2.71,1.15-5.19,1.16-5.93-.12l-3.16-4.33h0c-.37-.74,1.36-2.53,4.05-4.29l5.04,8.73Z" style="fill: #0d142a; fill-rule: evenodd; stroke-width: 0px;"/>
      <path d="M281.54,171.92c3.53-2.04,7.1-2.45,7.98-.93.88,1.52-1.27,4.4-4.8,6.44-3.53,2.04-7.1,2.45-7.98.93-.88-1.52,1.27-4.4,4.8-6.44Z" style="fill: #0c0e17; fill-rule: evenodd; stroke-width: 0px;"/>
      <path d="M287.82,170.79c.77,1.34-.93,3.77-3.8,5.42-2.87,1.66-5.82,1.91-6.59.58l-5.36-7.33,12.07-6.97,3.67,8.31Z" style="fill: #fff; fill-rule: evenodd; stroke-width: 0px;"/>
      <path d="M282.47,176.97c-2.31.94-4.41.91-5.04-.18l-5.36-7.33,4.54-2.62,5.85,10.14Z" style="fill: #eef1ef; fill-rule: evenodd; stroke-width: 0px;"/>
      <path d="M286.59,163.33c1.12,1.93-1.34,5.44-5.48,7.83-4.14,2.39-8.41,2.77-9.52.83l-4.03-5.51h0c-.55-1.1,2.58-4.04,7.03-6.62,4.45-2.57,8.56-3.8,9.24-2.78h0s2.76,6.24,2.76,6.24Z" style="fill: #101d42; fill-rule: evenodd; stroke-width: 0px;"/>
      <path d="M279.57,171.95c-3.62,1.66-7.01,1.73-7.99.04l-4.03-5.51h0c-.48-.97,1.91-3.39,5.55-5.72l6.46,11.19Z" style="fill: #0d142a; fill-rule: evenodd; stroke-width: 0px;"/>
      <path d="M273.68,158.31c4.49-2.59,9.04-3.13,10.16-1.19,1.12,1.94-1.62,5.61-6.11,8.21-4.49,2.6-9.04,3.13-10.16,1.19-1.12-1.94,1.62-5.61,6.11-8.21Z" style="fill: #0c0e17; fill-rule: evenodd; stroke-width: 0px;"/>
      <path d="M281.67,156.86c.98,1.71-1.18,4.8-4.84,6.91-3.65,2.11-7.42,2.44-8.4.73l-6.82-9.34,15.38-8.88,4.68,10.58Z" style="fill: #fff; fill-rule: evenodd; stroke-width: 0px;"/>
      <path d="M275.3,164.56c-3.12,1.38-6.01,1.41-6.86-.05l-6.38-8.73c2.93-1.53,6.4-3.06,6.4-3.06l6.84,11.84Z" style="fill: #eef1ef; fill-rule: evenodd; stroke-width: 0px;"/>
      <path d="M278.72,146.88c1.3,2.25-1.56,6.33-6.38,9.11-4.82,2.78-9.78,3.22-11.08.97l-9-12.32,20.28-11.71,6.17,13.95Z" style="fill: #101d42; fill-rule: evenodd; stroke-width: 0px;"/>
      <path d="M270.81,156.79c-4.3,2.04-8.39,2.18-9.55.16l-9-12.32,8.65-4.99,9.9,17.15Z" style="fill: #0d142a; fill-rule: evenodd; stroke-width: 0px;"/>
      <path d="M260.06,134.71c5.6-3.23,11.19-4.03,12.49-1.78,1.3,2.25-2.19,6.69-7.79,9.93-5.6,3.23-11.19,4.03-12.49,1.78-1.3-2.25,2.19-6.69,7.79-9.93Z" style="fill: #0e1328; fill-rule: evenodd; stroke-width: 0px;"/>
      <path d="M272.8,134.37c-.31,2.4-3.47,5.84-8.04,8.48-4.57,2.64-9.13,3.66-11.36,2.72.31-2.4,3.47-5.84,8.04-8.48,4.57-2.64,9.13-3.66,11.36-2.72Z" style="fill: #0c0e17; fill-rule: evenodd; stroke-width: 0px;"/>
      <path d="M271.23,137.53c-1.41,1.79-3.68,3.71-6.47,5.32-2.8,1.61-5.59,2.62-7.85,2.95.29-2.15,2.46-4.8,5.69-6.67,3.24-1.87,6.62-2.42,8.63-1.6Z" style="fill: #d2eef9; fill-rule: evenodd; stroke-width: 0px;"/>
      <path d="M277.16,189.94h3.22c.37,0,.67.3.67.67v1.28c0,.37-.3.67-.67.67h-3.22c-.37,0-.67-.3-.67-.67v-1.27c0-.37.3-.67.67-.67Z" transform="translate(-58.28 165.08) rotate(-30.01)" style="fill: #2c3d62; stroke-width: 0px;"/>
      <path d="M278.23,193.16h3.82c.2,0,.37.16.37.37v.19c0,.2-.16.37-.37.37h-3.82c-.2,0-.37-.16-.37-.37v-.19c0-.2.16-.37.37-.37Z" transform="translate(-59.28 166.03) rotate(-30)" style="fill: #2c3d62; stroke-width: 0px;"/>
      <path d="M279.23,195.87l3.31-1.91c.17-.1.4-.04.5.13l.1.17c.1.17.04.4-.13.5l-3.31,1.91c-.17.1-.4.04-.5-.13l-.1-.17c-.1-.17-.04-.4.14-.5Z" style="fill: #2c3d62; fill-rule: evenodd; stroke-width: 0px;"/>
      <path d="M293.15,188.2h4.31c.49,0,.89.4.89.89v1.71c0,.49-.4.9-.9.9h-4.31c-.49,0-.9-.4-.9-.9v-1.71c0-.49.4-.9.9-.9Z" transform="translate(-55.41 173.12) rotate(-30)" style="fill: #0c0e17; stroke-width: 0px;"/>
      <path d="M278.89,147.18c-.23.65-.56,1.32-1,1.98-1.29,1.99-3.48,4.02-6.25,5.62-2.77,1.6-5.62,2.48-7.99,2.61-.79.04-1.54,0-2.21-.13l-.04-.07-1.19-1.67c.8.43,1.92.6,3.23.53,2.21-.12,4.88-.95,7.51-2.47,2.63-1.52,4.69-3.42,5.89-5.27.72-1.1,1.12-2.16,1.15-3.07l.86,1.86s.03.05.04.08Z" style="fill: #2c3d62; fill-rule: evenodd; stroke-width: 0px;"/>
      <path d="M263.53,139.01c1.54-.89,3.04-1.17,3.35-.63.31.54-.68,1.7-2.22,2.59-1.54.89-3.04,1.17-3.35.63s.68-1.7,2.22-2.59Z" style="fill: #fff; fill-rule: evenodd; stroke-width: 0px;"/>
    </g>
    <path d="M320.43,82.94c1.47-27.99-55.08-18.41-40.65,3.47,0,0,4.06,2.57,6.96,3.19,2.9.62,14.6-3.77,19.62-3.3,0,0,9.93-9.17,14.06-3.36Z" style="fill: #101d42; fill-rule: evenodd; stroke-width: 0px;"/>
    <path d="M312.91,68.73c-.7-.4-1.42-.76-2.18-1.08-1.82,1.66-4.9,4.08-9.05,6.04-5.6,2.65-13.31-.58-16.85-4.46-2.35,1.28-4.3,2.89-5.61,4.76,2.94,2.09,7.02,4.37,11.39,4.97,7.53,1.03,19.22-6.64,22.3-10.22Z" style="fill: #2c3d62; fill-rule: evenodd; stroke-width: 0px;"/>
    <path d="M320.43,82.94c.23-4.29-.92-7.7-2.96-10.32-2.86,3.81-24.47,14.53-30.35,12.68-3.81-1.2-7.48-4.77-9.6-7.13-.36,2.47.28,5.24,2.26,8.24,0,0,4.06,2.57,6.96,3.19,2.9.62,14.6-3.77,19.62-3.3,0,0,9.93-9.17,14.06-3.36Z" style="fill: #0c0e17; fill-rule: evenodd; stroke-width: 0px;"/>
    <path d="M300.19,134.62c.12-.17.34-.21.51-.09.16.11.21.34.09.51-3.18,4.62-1.45,7.53.39,10.66,1.45,2.45,2.97,5.03,2.46,8.61-.03.2-.21.34-.41.31s-.34-.21-.31-.41c.47-3.33-.98-5.79-2.36-8.14-1.97-3.33-3.8-6.44-.36-11.44Z" style="fill: #fff; fill-rule: evenodd; stroke-width: 0px;"/>
    <path d="M295.64,134.63c0-.2.16-.37.36-.37.2,0,.37.16.37.36,0,.04.32,13.59-8.59,12.98-.2-.01-.35-.19-.34-.39.02-.2.19-.35.39-.34,8.11.55,7.81-12.21,7.81-12.24Z" style="fill: #fff; fill-rule: evenodd; stroke-width: 0px;"/>
    <path d="M287.44,148.11c.49,0,.9-.4.9-.89s-.4-.89-.9-.89-.89.4-.89.89.4.89.89.89Z" style="fill: #fff; fill-rule: evenodd; stroke-width: 0px;"/>
    <path d="M303.23,155.5c.49,0,.89-.4.89-.89s-.4-.89-.89-.89-.89.4-.89.89.4.89.89.89Z" style="fill: #fff; fill-rule: evenodd; stroke-width: 0px;"/>
    <path d="M256.92,156.44c-1.68-2.98-2.83-4.6-.79-7.92,2.04-3.32,2.68-3.39,3.56-2.83.88.56-.35,2.32-.35,2.32,0,0,1.18-1.65,2.65-1.21,1.46.44,0,3.05,0,3.05,0,0,1.71-1.33,2.38-.15s-.37,3.14-.37,3.14c0,0,1.74-.57,1.98.71.25,1.28-2.01,4.62-2.01,4.62l2.39,3.01s-4.83,2.15-9.44-4.76Z" style="fill: #e29983; fill-rule: evenodd; stroke-width: 0px;"/>
    <path d="M292.08,200.48c-3.09,1.45-4.79,2.48-7.95.2-3.16-2.28-3.18-2.93-2.56-3.76.62-.83,2.29.52,2.29.52,0,0-1.56-1.3-1.01-2.73.55-1.43,3.04.23,3.04.23,0,0-1.2-1.8.03-2.38,1.23-.58,3.11.6,3.11.6,0,0-.44-1.77.86-1.92,1.3-.15,4.46,2.35,4.46,2.35l3.18-2.16s1.79,4.98-5.44,9.06Z" style="fill: #e29983; fill-rule: evenodd; stroke-width: 0px;"/>
  </g>
</svg>